<svg version="1.1" id="Layer_1" xmlns="http://www.w3.org/2000/svg" xmlns:xlink="http://www.w3.org/1999/xlink" x="0px" y="0px"
	 width="100%" viewBox="0 0 1200 1202" enable-background="new 0 0 1200 1202" xml:space="preserve">
<path fill="#643FF2" opacity="1.000000" stroke="none" 
	d="
M1.000000,390.000000 
	C1.000000,260.407959 1.000000,130.815933 1.000000,1.000000 
	C121.355888,1.000000 241.711914,1.000000 362.533997,1.462010 
	C363.328888,7.064999 363.655609,12.206114 363.987000,17.346930 
	C365.686859,43.716259 366.357727,70.203201 369.353333,96.424538 
	C372.974579,128.122101 377.977051,159.697922 383.496155,191.130768 
	C387.637848,214.718689 392.931610,238.151917 398.825897,261.371368 
	C404.923126,285.390076 412.025146,309.172150 419.325958,332.860992 
	C425.008514,351.299103 431.276398,369.582153 438.007751,387.664734 
	C444.800201,405.911346 451.921021,424.079681 459.912109,441.825592 
	C471.447144,467.441589 483.945282,492.622894 495.914612,518.045166 
	C498.225616,522.953674 499.994843,528.117188 501.593445,533.270630 
	C499.222565,533.507568 497.272308,533.636963 495.306091,533.767334 
	C495.306091,589.228394 495.306091,644.277832 495.306091,699.588379 
	C507.372040,699.588379 519.113892,699.588379 531.283081,699.588379 
	C531.283081,680.415527 531.283081,661.446289 531.283081,642.305725 
	C537.683411,651.689148 546.585510,656.190186 557.122437,656.859558 
	C564.355469,657.319092 571.685364,656.255310 579.060425,656.211487 
	C583.981567,663.093262 588.658020,669.758484 593.675720,676.156006 
	C610.098083,697.094482 626.228394,718.282776 643.267639,738.710449 
	C658.482666,756.951233 674.148804,774.898804 690.691589,791.930969 
	C720.715942,822.843201 750.996094,853.553406 784.424438,880.908813 
	C798.444275,892.381653 812.240540,904.143555 826.560059,915.229492 
	C839.699829,925.402161 853.283997,935.017334 866.895081,944.560486 
	C883.520325,956.216980 900.049194,968.062317 917.205078,978.899292 
	C950.284424,999.794739 983.989685,1019.688904 1019.319153,1036.603271 
	C1045.581177,1049.176514 1071.904175,1061.672974 1098.624268,1073.222168 
	C1119.385620,1082.195801 1140.696533,1089.943604 1161.966064,1097.678589 
	C1174.776733,1102.337402 1187.975586,1105.928955 1201.000000,1110.000000 
	C1201.000000,1140.982666 1201.000000,1171.965454 1201.000000,1203.000000 
	C973.644043,1203.000000 746.288086,1203.000000 518.376770,1202.668457 
	C511.623230,1191.914307 500.557129,1186.610840 492.379486,1178.225586 
	C484.722473,1170.374023 476.169586,1163.396606 468.024567,1156.019409 
	C467.046631,1155.133667 466.200958,1154.100464 465.213501,1153.226685 
	C460.054749,1148.661499 454.853088,1144.144775 449.699585,1139.573608 
	C445.526001,1135.871826 441.417603,1132.096313 437.245667,1128.392578 
	C434.405365,1125.871094 431.240295,1123.659302 428.693573,1120.876099 
	C424.772614,1116.591309 421.488373,1111.716919 417.502777,1107.500122 
	C413.809387,1103.592529 409.339050,1100.425049 405.586426,1096.566406 
	C398.678589,1089.463501 392.061035,1082.079102 385.295532,1074.837280 
	C377.415924,1066.403076 369.388824,1058.103271 361.642456,1049.548828 
	C352.616669,1039.581543 343.778992,1029.441895 334.964325,1019.286377 
	C332.726837,1016.708496 331.054535,1013.640930 328.823792,1011.056152 
	C325.498108,1007.202637 321.669556,1003.769409 318.482361,999.812988 
	C313.147095,993.190430 308.818451,985.624084 302.848236,979.677612 
	C294.394714,971.257446 288.240326,961.189026 280.851837,952.029968 
	C275.378510,945.244934 270.572815,937.925476 265.325684,930.952515 
	C259.888123,923.726501 254.072083,916.778442 248.795868,909.439697 
	C242.824005,901.133179 237.334915,892.481262 231.510071,884.066650 
	C226.939713,877.464294 221.978409,871.126526 217.549332,864.433838 
	C211.401672,855.144226 205.591385,845.631348 199.633301,836.216187 
	C194.616592,828.288635 189.479462,820.434204 184.616547,812.413452 
	C181.385864,807.084900 178.714859,801.417114 175.488510,796.085693 
	C170.632233,788.060730 165.419373,780.252075 160.529602,772.246704 
	C156.928528,766.351074 153.564407,760.309021 150.161316,754.294556 
	C145.313324,745.726257 139.989212,737.526978 136.139038,728.275269 
	C132.908386,720.512329 129.357513,712.159668 121.183121,707.211914 
	C116.967407,704.660217 113.689552,700.559143 110.320648,697.220215 
	C119.015999,702.108704 127.183113,707.328308 135.812073,711.619080 
	C141.285446,714.340698 143.238205,717.586914 143.141251,723.827637 
	C142.850586,742.539856 157.257919,755.433167 175.773361,753.873718 
	C192.398209,752.473511 204.386917,736.724121 201.743103,719.413208 
	C201.301926,716.524658 202.135681,715.272705 204.492203,713.945557 
	C223.347900,703.327454 242.180878,692.666565 260.892944,681.798584 
	C263.753571,680.137085 265.393738,680.659851 267.833466,682.441406 
	C277.787415,689.710266 288.536255,690.376343 299.290649,684.604553 
	C309.811829,678.957886 315.604431,669.913086 315.187042,657.771912 
	C314.755402,645.216736 308.014496,636.567200 296.789764,631.490845 
	C293.875610,630.172852 292.967102,628.695435 292.987305,625.586792 
	C293.125946,604.263306 293.114014,582.938232 293.004944,561.614380 
	C292.988739,558.444458 293.587524,556.734558 296.979004,555.417603 
	C304.721191,552.411255 310.431641,546.970032 313.210175,538.842224 
	C317.454468,526.426880 313.385193,512.125854 303.410309,504.626556 
	C293.096588,496.872620 276.828491,496.651093 266.496765,504.585510 
	C263.685913,506.744141 261.873077,506.515839 259.125000,504.896454 
	C242.200150,494.922821 225.274323,484.942535 208.134399,475.347504 
	C203.439392,472.719208 201.468567,470.216064 201.809082,464.323364 
	C202.686768,449.134399 190.410095,435.635925 175.590164,434.133545 
	C159.759476,432.528656 146.236725,442.326996 143.421280,457.656952 
	C142.855942,460.735291 142.820526,463.973938 143.010605,467.110199 
	C143.197433,470.192657 142.034195,471.938019 139.407608,473.449585 
	C121.517715,483.745178 103.664948,494.107208 85.902260,504.620239 
	C82.470901,506.651093 79.947769,506.933624 76.752632,504.046631 
	C74.634323,502.132629 71.603615,500.946594 68.779793,500.142487 
	C53.902088,495.905762 41.727024,501.198761 32.358051,515.252075 
	C33.058041,512.174133 33.884247,509.541565 34.575130,506.873993 
	C35.215458,504.401642 36.602802,501.689301 36.091801,499.439056 
	C34.890553,494.149170 32.752956,489.071777 30.992432,483.909027 
	C29.020582,478.126495 26.994896,472.361725 25.085228,466.558746 
	C21.785488,456.531616 18.529234,446.489929 15.308777,436.437042 
	C13.161510,429.734222 10.872387,423.063690 9.075227,416.265411 
	C7.064933,408.660919 5.625650,400.906708 3.714106,393.273682 
	C3.403564,392.033630 1.933893,391.083923 1.000000,390.000000 
M467.681976,596.826782 
	C462.401703,593.433655 457.410706,589.417236 451.770630,586.799438 
	C444.097076,583.237793 435.909515,580.791809 427.981598,577.764832 
	C425.508972,576.820679 422.935638,575.865051 420.806091,574.354187 
	C416.153687,571.053406 416.835510,564.715576 421.907837,562.111877 
	C427.459015,559.262390 435.183075,561.565186 438.488312,567.103577 
	C439.403290,568.636719 440.166321,570.260559 441.078949,571.994568 
	C451.521240,569.202332 461.585388,566.511169 471.762878,563.789673 
	C469.273712,555.728882 464.970398,549.300720 459.228699,543.815613 
	C444.327240,529.580078 416.330597,527.846130 398.216980,538.660034 
	C377.232697,551.187805 375.146362,581.572021 397.526215,595.893127 
	C404.469696,600.336365 412.288696,603.450500 419.827576,606.910095 
	C424.656555,609.126160 429.875183,610.524231 434.613586,612.898743 
	C440.245697,615.721008 440.739380,620.699036 436.052277,624.969421 
	C434.521118,626.364441 432.492249,627.511230 430.496490,628.046814 
	C421.474396,630.467957 413.244904,626.511353 407.697083,617.734619 
	C406.878021,616.438843 404.519867,614.895386 403.372894,615.221558 
	C394.628479,617.708008 386.008057,620.630432 376.893341,623.563782 
	C378.291168,626.878906 379.276855,629.890198 380.760345,632.632202 
	C398.435120,665.300720 446.384125,663.902222 466.884338,642.468872 
	C478.831818,629.977600 479.150177,609.807434 467.681976,596.826782 
z"/>
<path fill="#6C49F3" opacity="1.000000" stroke="none" 
	d="
M502.013977,533.163086 
	C499.994843,528.117188 498.225616,522.953674 495.914612,518.045166 
	C483.945282,492.622894 471.447144,467.441589 459.912109,441.825592 
	C451.921021,424.079681 444.800201,405.911346 438.007751,387.664734 
	C431.276398,369.582153 425.008514,351.299103 419.325958,332.860992 
	C412.025146,309.172150 404.923126,285.390076 398.825897,261.371368 
	C392.931610,238.151917 387.637848,214.718689 383.496155,191.130768 
	C377.977051,159.697922 372.974579,128.122101 369.353333,96.424538 
	C366.357727,70.203201 365.686859,43.716259 363.987000,17.346930 
	C363.655609,12.206114 363.328888,7.064999 363.000031,1.462010 
	C507.020905,1.000000 651.041809,1.000000 795.531006,1.405678 
	C795.940063,7.293398 795.467590,12.809595 795.917358,18.249542 
	C796.606445,26.582996 798.611389,34.848602 798.798584,43.171341 
	C798.994873,51.891499 802.740356,60.309090 800.740051,69.152153 
	C800.654419,69.530594 801.196777,70.013771 801.313660,70.481407 
	C802.062561,73.477432 802.963806,76.451653 803.462463,79.490860 
	C804.948730,88.549179 806.302246,97.629776 807.644836,106.710945 
	C808.205750,110.504349 808.445801,114.350853 809.134094,118.117973 
	C809.686523,121.141548 810.810425,124.056213 811.477539,127.064270 
	C812.860535,133.300644 813.927979,139.612183 815.478577,145.804306 
	C816.426758,149.590836 818.324402,153.139359 819.275574,156.925446 
	C820.842896,163.164597 821.810730,169.554031 823.368042,175.796112 
	C824.636108,180.879349 826.418213,185.833282 827.931763,190.856781 
	C828.813782,193.784119 829.539246,196.760086 830.470581,199.670807 
	C832.166199,204.969666 833.955383,210.238693 835.719788,215.515427 
	C836.691467,218.421371 837.602356,221.352097 838.700439,224.210281 
	C840.351868,228.508865 842.264526,232.709305 843.846069,237.031967 
	C846.027161,242.993530 847.701111,249.156647 850.149414,254.999985 
	C852.753906,261.215820 856.915527,266.896729 858.764099,273.283813 
	C861.447876,282.556763 869.210571,289.647552 869.570251,299.772675 
	C869.591431,300.367157 870.154297,300.948547 870.484314,301.524933 
	C874.839722,309.130127 879.334656,316.659363 883.519958,324.356995 
	C888.090210,332.762665 892.448669,341.286560 896.743225,349.837372 
	C898.258057,352.853394 898.901489,356.356110 900.662598,359.189148 
	C904.201660,364.882355 908.334839,370.202271 912.039673,375.797546 
	C916.485107,382.511230 920.142517,389.841309 925.215271,396.023071 
	C933.008972,405.520844 938.626892,416.530334 946.940552,425.662903 
	C951.668030,430.855988 955.360901,436.997070 959.456238,442.756348 
	C961.060974,445.013184 962.483765,447.398895 964.007019,449.714325 
	C964.542969,450.528931 964.979492,451.798401 965.719788,452.028320 
	C972.413879,454.107513 973.598450,461.459503 978.604980,465.301331 
	C982.132874,468.008575 984.384399,472.377228 987.213135,475.998352 
	C988.859680,478.106079 990.777161,480.053894 992.104248,482.345001 
	C993.484314,484.727448 994.300232,487.436707 995.385986,490.470886 
	C995.414185,500.261078 995.422363,509.583466 995.423767,518.905823 
	C995.430542,562.521301 995.505310,606.137024 995.336365,649.751831 
	C995.318909,654.263428 996.676086,655.439453 1000.988464,655.286743 
	C1009.634094,654.980530 1018.310547,654.920959 1026.949829,655.306458 
	C1031.754517,655.520813 1032.679565,653.744812 1032.659790,649.323792 
	C1032.497437,613.033813 1032.564697,576.742737 1032.588623,540.452026 
	C1032.590698,537.298279 1032.781860,534.144653 1033.220337,530.912659 
	C1035.127686,530.044495 1036.699951,529.254700 1037.883789,528.659973 
	C1042.752319,532.741028 1047.143799,536.669861 1051.796265,540.260620 
	C1057.832764,544.919739 1065.613770,548.423828 1062.131226,558.456360 
	C1061.931641,559.031433 1062.182007,559.762695 1062.114990,560.740845 
	C1061.208374,562.522461 1060.403198,563.981079 1059.611816,565.447144 
	C1046.218506,590.261780 1052.089233,623.100098 1073.573975,641.109497 
	C1091.350830,656.010559 1112.193481,659.854675 1134.623779,656.268188 
	C1147.530273,654.204468 1159.008301,648.974670 1168.778320,638.901306 
	C1165.291382,635.625061 1162.033203,632.563721 1158.790039,629.097534 
	C1158.729492,628.034607 1158.592651,627.376709 1158.590088,626.718262 
	C1158.583130,624.943970 1158.633423,623.169556 1158.661011,621.395142 
	C1160.582031,622.015198 1162.935059,622.131470 1164.348267,623.343628 
	C1170.137817,628.309265 1179.024658,628.383606 1183.381470,635.515747 
	C1183.520386,635.743042 1183.965942,635.838013 1184.285889,635.891602 
	C1189.457886,636.757629 1194.166748,638.315735 1197.286255,643.070068 
	C1197.801025,643.854553 1199.726440,643.713379 1201.000000,644.000000 
	C1201.000000,799.020935 1201.000000,954.041809 1201.000000,1109.531372 
	C1187.975586,1105.928955 1174.776733,1102.337402 1161.966064,1097.678589 
	C1140.696533,1089.943604 1119.385620,1082.195801 1098.624268,1073.222168 
	C1071.904175,1061.672974 1045.581177,1049.176514 1019.319153,1036.603271 
	C983.989685,1019.688904 950.284424,999.794739 917.205078,978.899292 
	C900.049194,968.062317 883.520325,956.216980 866.895081,944.560486 
	C853.283997,935.017334 839.699829,925.402161 826.560059,915.229492 
	C812.240540,904.143555 798.444275,892.381653 784.424438,880.908813 
	C750.996094,853.553406 720.715942,822.843201 690.691589,791.930969 
	C674.148804,774.898804 658.482666,756.951233 643.267639,738.710449 
	C626.228394,718.282776 610.098083,697.094482 593.675720,676.156006 
	C588.658020,669.758484 583.981567,663.093262 579.342529,655.992065 
	C589.130615,652.264099 597.861511,647.706848 605.286926,640.642456 
	C625.774780,621.150818 627.259033,585.423218 616.216553,563.417297 
	C604.774597,540.615112 576.624023,526.821533 551.971008,533.219238 
	C545.005554,535.026733 538.666748,539.249329 531.892700,542.433838 
	C531.892700,540.131226 531.892700,537.068604 531.892700,533.163086 
	C521.598145,533.163086 511.806061,533.163086 502.013977,533.163086 
M971.845581,602.500000 
	C971.845581,565.079346 971.845581,527.658630 971.845581,490.131287 
	C959.186523,490.131287 947.273254,490.131287 934.794922,490.131287 
	C934.794922,499.223724 934.794983,508.008148 934.794983,516.792542 
	C934.794983,525.537292 934.794922,534.282043 934.794922,543.116394 
	C929.740112,540.170959 925.451599,536.937256 920.641541,534.995789 
	C899.336243,526.396545 871.710754,534.490845 856.885925,553.595886 
	C843.463562,570.893311 841.040283,590.571411 845.488953,611.395874 
	C852.195618,642.789795 883.368958,663.173950 914.500427,655.947510 
	C921.749634,654.264771 928.305481,649.595093 934.908020,646.430359 
	C934.877686,647.079529 935.153625,648.980713 934.639282,650.636475 
	C933.398376,654.631470 935.391418,655.270142 938.651733,655.198608 
	C942.981262,655.103577 947.314453,655.176758 951.646057,655.177002 
	C958.233276,655.177368 964.820496,655.177124 971.845459,655.177124 
	C971.845459,637.424072 971.845459,620.462036 971.845581,602.500000 
M810.852173,544.654175 
	C802.088379,535.634094 791.197937,531.846802 778.857239,531.906128 
	C762.825867,531.983276 750.698547,539.390381 741.060425,553.649170 
	C741.060425,546.157593 741.060425,540.093323 741.060425,533.945740 
	C728.528320,533.945740 716.500549,533.945740 704.499695,533.945740 
	C704.499695,574.480408 704.499695,614.552246 704.499695,654.715088 
	C716.851074,654.715088 728.872681,654.715088 741.179382,654.715088 
	C741.179382,633.792480 741.174744,613.317261 741.180847,592.841980 
	C741.185669,576.572266 756.526184,562.560059 772.762878,563.982239 
	C779.593384,564.580505 784.359253,568.197083 785.904724,574.983765 
	C787.039795,579.968506 787.677185,585.167603 787.730591,590.279663 
	C787.936157,609.930420 787.817078,629.584656 787.819092,649.237549 
	C787.819275,651.018494 787.819153,652.799377 787.819153,654.734619 
	C800.430603,654.734619 812.439514,654.734619 823.906616,654.734619 
	C823.906616,627.186035 824.409546,600.064209 823.650940,572.977722 
	C823.360779,562.616394 818.733643,552.994873 810.852173,544.654175 
M680.173523,582.500000 
	C680.173523,566.372803 680.173523,550.245605 680.173523,533.880737 
	C667.634583,533.880737 655.580200,533.880737 643.632507,533.880737 
	C643.632507,574.458984 643.632507,614.645081 643.632507,654.762817 
	C655.989929,654.762817 667.888123,654.762817 680.173462,654.762817 
	C680.173462,630.745789 680.173462,607.122864 680.173523,582.500000 
M658.504456,489.832855 
	C653.568909,489.832855 648.633301,489.832855 643.559387,489.832855 
	C643.559387,500.567474 643.559387,510.614624 643.559387,520.687378 
	C655.861694,520.687378 667.777649,520.687378 679.792114,520.687378 
	C679.792114,510.328400 679.792114,500.285889 679.792114,489.832855 
	C672.774414,489.832855 666.138428,489.832855 658.504456,489.832855 
z"/>
<path fill="#7452F4" opacity="1.000000" stroke="none" 
	d="
M1201.000000,643.531372 
	C1199.726440,643.713379 1197.801025,643.854553 1197.286255,643.070068 
	C1194.166748,638.315735 1189.457886,636.757629 1184.285889,635.891602 
	C1183.965942,635.838013 1183.520386,635.743042 1183.381470,635.515747 
	C1179.024658,628.383606 1170.137817,628.309265 1164.348267,623.343628 
	C1162.935059,622.131470 1160.582031,622.015198 1158.661011,621.395142 
	C1158.633423,623.169556 1158.583130,624.943970 1158.590088,626.718262 
	C1158.592651,627.376709 1158.729492,628.034607 1158.484741,628.936279 
	C1155.099243,626.151917 1152.034058,623.123962 1149.112183,619.798462 
	C1150.967651,618.862732 1152.679688,618.224548 1156.069336,616.961060 
	C1153.058350,615.297607 1151.085449,613.419617 1148.938232,613.192993 
	C1145.030518,612.780457 1143.721924,610.965942 1144.447754,607.303833 
	C1154.864502,607.213806 1164.819580,607.213806 1175.219116,607.213806 
	C1177.174438,589.317322 1176.484253,572.326477 1166.197144,557.381165 
	C1149.699463,533.412903 1118.390503,525.003174 1091.718994,536.634155 
	C1079.668701,541.889160 1069.917480,549.841736 1062.223022,560.421265 
	C1062.182007,559.762695 1061.931641,559.031433 1062.131226,558.456360 
	C1065.613770,548.423828 1057.832764,544.919739 1051.796265,540.260620 
	C1047.143799,536.669861 1042.752319,532.741028 1037.883789,528.659973 
	C1036.699951,529.254700 1035.127686,530.044495 1033.095215,530.458618 
	C1032.597412,518.097351 1032.464600,506.110931 1032.585327,494.127075 
	C1032.618042,490.882721 1031.605591,489.711761 1028.318604,489.771393 
	C1017.335571,489.970734 1006.348389,489.943481 995.362793,490.003052 
	C994.300232,487.436707 993.484314,484.727448 992.104248,482.345001 
	C990.777161,480.053894 988.859680,478.106079 987.213135,475.998352 
	C984.384399,472.377228 982.132874,468.008575 978.604980,465.301331 
	C973.598450,461.459503 972.413879,454.107513 965.719788,452.028320 
	C964.979492,451.798401 964.542969,450.528931 964.007019,449.714325 
	C962.483765,447.398895 961.060974,445.013184 959.456238,442.756348 
	C955.360901,436.997070 951.668030,430.855988 946.940552,425.662903 
	C938.626892,416.530334 933.008972,405.520844 925.215271,396.023071 
	C920.142517,389.841309 916.485107,382.511230 912.039673,375.797546 
	C908.334839,370.202271 904.201660,364.882355 900.662598,359.189148 
	C898.901489,356.356110 898.258057,352.853394 896.743225,349.837372 
	C892.448669,341.286560 888.090210,332.762665 883.519958,324.356995 
	C879.334656,316.659363 874.839722,309.130127 870.484314,301.524933 
	C870.154297,300.948547 869.591431,300.367157 869.570251,299.772675 
	C869.210571,289.647552 861.447876,282.556763 858.764099,273.283813 
	C856.915527,266.896729 852.753906,261.215820 850.149414,254.999985 
	C847.701111,249.156647 846.027161,242.993530 843.846069,237.031967 
	C842.264526,232.709305 840.351868,228.508865 838.700439,224.210281 
	C837.602356,221.352097 836.691467,218.421371 835.719788,215.515427 
	C833.955383,210.238693 832.166199,204.969666 830.470581,199.670807 
	C829.539246,196.760086 828.813782,193.784119 827.931763,190.856781 
	C826.418213,185.833282 824.636108,180.879349 823.368042,175.796112 
	C821.810730,169.554031 820.842896,163.164597 819.275574,156.925446 
	C818.324402,153.139359 816.426758,149.590836 815.478577,145.804306 
	C813.927979,139.612183 812.860535,133.300644 811.477539,127.064270 
	C810.810425,124.056213 809.686523,121.141548 809.134094,118.117973 
	C808.445801,114.350853 808.205750,110.504349 807.644836,106.710945 
	C806.302246,97.629776 804.948730,88.549179 803.462463,79.490860 
	C802.963806,76.451653 802.062561,73.477432 801.313660,70.481407 
	C801.196777,70.013771 800.654419,69.530594 800.740051,69.152153 
	C802.740356,60.309090 798.994873,51.891499 798.798584,43.171341 
	C798.611389,34.848602 796.606445,26.582996 795.917358,18.249542 
	C795.467590,12.809595 795.940063,7.293398 795.999695,1.405678 
	C930.943665,1.000000 1065.887329,1.000000 1201.000000,1.000000 
	C1201.000000,215.020859 1201.000000,429.041779 1201.000000,643.531372 
z"/>
<path fill="#5E36F2" opacity="1.000000" stroke="none" 
	d="
M109.987915,697.158142 
	C113.689552,700.559143 116.967407,704.660217 121.183121,707.211914 
	C129.357513,712.159668 132.908386,720.512329 136.139038,728.275269 
	C139.989212,737.526978 145.313324,745.726257 150.161316,754.294556 
	C153.564407,760.309021 156.928528,766.351074 160.529602,772.246704 
	C165.419373,780.252075 170.632233,788.060730 175.488510,796.085693 
	C178.714859,801.417114 181.385864,807.084900 184.616547,812.413452 
	C189.479462,820.434204 194.616592,828.288635 199.633301,836.216187 
	C205.591385,845.631348 211.401672,855.144226 217.549332,864.433838 
	C221.978409,871.126526 226.939713,877.464294 231.510071,884.066650 
	C237.334915,892.481262 242.824005,901.133179 248.795868,909.439697 
	C254.072083,916.778442 259.888123,923.726501 265.325684,930.952515 
	C270.572815,937.925476 275.378510,945.244934 280.851837,952.029968 
	C288.240326,961.189026 294.394714,971.257446 302.848236,979.677612 
	C308.818451,985.624084 313.147095,993.190430 318.482361,999.812988 
	C321.669556,1003.769409 325.498108,1007.202637 328.823792,1011.056152 
	C331.054535,1013.640930 332.726837,1016.708496 334.964325,1019.286377 
	C343.778992,1029.441895 352.616669,1039.581543 361.642456,1049.548828 
	C369.388824,1058.103271 377.415924,1066.403076 385.295532,1074.837280 
	C392.061035,1082.079102 398.678589,1089.463501 405.586426,1096.566406 
	C409.339050,1100.425049 413.809387,1103.592529 417.502777,1107.500122 
	C421.488373,1111.716919 424.772614,1116.591309 428.693573,1120.876099 
	C431.240295,1123.659302 434.405365,1125.871094 437.245667,1128.392578 
	C441.417603,1132.096313 445.526001,1135.871826 449.699585,1139.573608 
	C454.853088,1144.144775 460.054749,1148.661499 465.213501,1153.226685 
	C466.200958,1154.100464 467.046631,1155.133667 468.024567,1156.019409 
	C476.169586,1163.396606 484.722473,1170.374023 492.379486,1178.225586 
	C500.557129,1186.610840 511.623230,1191.914307 517.910706,1202.668457 
	C345.723328,1203.000000 173.446625,1203.000000 1.000000,1203.000000 
	C1.000000,932.312439 1.000000,661.624878 1.000000,390.468658 
	C1.933893,391.083923 3.403564,392.033630 3.714106,393.273682 
	C5.625650,400.906708 7.064933,408.660919 9.075227,416.265411 
	C10.872387,423.063690 13.161510,429.734222 15.308777,436.437042 
	C18.529234,446.489929 21.785488,456.531616 25.085228,466.558746 
	C26.994896,472.361725 29.020582,478.126495 30.992432,483.909027 
	C32.752956,489.071777 34.890553,494.149170 36.091801,499.439056 
	C36.602802,501.689301 35.215458,504.401642 34.575130,506.873993 
	C33.884247,509.541565 33.058041,512.174133 32.262489,515.600830 
	C25.958483,534.631287 33.076096,549.975403 51.096565,556.964111 
	C51.479946,557.461060 51.720192,557.728577 52.058090,558.456177 
	C52.092224,582.278503 52.028702,605.640808 51.781582,629.169067 
	C51.362171,629.568726 51.157619,629.827087 50.732613,630.357788 
	C38.712120,634.740051 31.460472,642.855591 30.222084,655.331482 
	C28.995644,667.687012 33.987820,677.541565 44.724503,683.887085 
	C57.619831,691.508240 69.824524,689.268616 81.297409,679.904602 
	C90.917229,685.689636 100.452576,691.423889 109.987915,697.158142 
z"/>
<path fill="#FAF9FF" opacity="1.000000" stroke="none" 
	d="
M50.953430,556.734680 
	C33.076096,549.975403 25.958483,534.631287 32.329666,516.030884 
	C41.727024,501.198761 53.902088,495.905762 68.779793,500.142487 
	C71.603615,500.946594 74.634323,502.132629 76.752632,504.046631 
	C79.947769,506.933624 82.470901,506.651093 85.902260,504.620239 
	C103.664948,494.107208 121.517715,483.745178 139.407608,473.449585 
	C142.034195,471.938019 143.197433,470.192657 143.010605,467.110199 
	C142.820526,463.973938 142.855942,460.735291 143.421280,457.656952 
	C146.236725,442.326996 159.759476,432.528656 175.590164,434.133545 
	C190.410095,435.635925 202.686768,449.134399 201.809082,464.323364 
	C201.468567,470.216064 203.439392,472.719208 208.134399,475.347504 
	C225.274323,484.942535 242.200150,494.922821 259.125000,504.896454 
	C261.873077,506.515839 263.685913,506.744141 266.496765,504.585510 
	C276.828491,496.651093 293.096588,496.872620 303.410309,504.626556 
	C313.385193,512.125854 317.454468,526.426880 313.210175,538.842224 
	C310.431641,546.970032 304.721191,552.411255 296.979004,555.417603 
	C293.587524,556.734558 292.988739,558.444458 293.004944,561.614380 
	C293.114014,582.938232 293.125946,604.263306 292.987305,625.586792 
	C292.967102,628.695435 293.875610,630.172852 296.789764,631.490845 
	C308.014496,636.567200 314.755402,645.216736 315.187042,657.771912 
	C315.604431,669.913086 309.811829,678.957886 299.290649,684.604553 
	C288.536255,690.376343 277.787415,689.710266 267.833466,682.441406 
	C265.393738,680.659851 263.753571,680.137085 260.892944,681.798584 
	C242.180878,692.666565 223.347900,703.327454 204.492203,713.945557 
	C202.135681,715.272705 201.301926,716.524658 201.743103,719.413208 
	C204.386917,736.724121 192.398209,752.473511 175.773361,753.873718 
	C157.257919,755.433167 142.850586,742.539856 143.141251,723.827637 
	C143.238205,717.586914 141.285446,714.340698 135.812073,711.619080 
	C127.183113,707.328308 119.015999,702.108704 110.320648,697.220215 
	C100.452576,691.423889 90.917229,685.689636 81.297409,679.904602 
	C69.824524,689.268616 57.619831,691.508240 44.724503,683.887085 
	C33.987820,677.541565 28.995644,667.687012 30.222084,655.331482 
	C31.460472,642.855591 38.712120,634.740051 51.020081,630.303101 
	C51.694576,629.668213 51.829880,629.335632 51.965179,629.003052 
	C52.028702,605.640808 52.092224,582.278503 52.062546,558.141968 
	C51.630707,557.156677 51.292065,556.945679 50.953430,556.734680 
M62.204777,595.499939 
	C62.204777,606.466125 62.204777,617.432312 62.204777,627.979492 
	C67.801208,631.149658 70.442650,629.173828 73.109032,624.358032 
	C83.674973,605.274963 94.709595,586.451355 105.561424,567.526367 
	C106.357552,566.137939 107.081108,564.707825 108.018021,562.962585 
	C99.857140,558.331299 92.082657,553.866028 84.229828,549.543030 
	C83.422226,549.098450 81.941498,549.127563 81.121140,549.575012 
	C75.117569,552.849426 69.202873,556.286804 62.204956,560.273987 
	C62.204956,570.549133 62.204956,582.524475 62.204777,595.499939 
M258.046844,601.399963 
	C262.427002,609.048157 267.158783,616.522400 271.060944,624.407166 
	C273.566345,629.469604 276.504608,630.899170 281.591309,628.259827 
	C281.591309,604.987854 281.591309,581.629700 281.591309,559.847412 
	C274.928772,556.193481 269.207062,553.010986 263.429321,549.933655 
	C262.534973,549.457275 261.099274,548.940857 260.395325,549.325073 
	C252.265884,553.762085 244.229263,558.369263 236.008698,563.021423 
	C243.451050,575.969788 250.574402,588.363220 258.046844,601.399963 
M232.500214,663.534363 
	C214.427917,663.534363 196.355637,663.534363 177.785309,663.534363 
	C177.785309,673.569580 177.686722,682.853882 177.922333,692.129700 
	C177.948837,693.173401 179.725143,694.390991 180.929382,695.146423 
	C184.974197,697.683960 189.500473,699.603210 193.113983,702.629028 
	C195.725616,704.816101 197.336273,705.322266 200.349319,703.598511 
	C218.971207,692.944763 237.710297,682.495911 256.399261,671.958984 
	C256.940094,671.654114 257.356293,671.128235 257.542297,670.962402 
	C257.320648,664.661255 254.106628,662.888977 248.470490,663.434753 
	C243.523575,663.913757 238.493530,663.534424 232.500214,663.534363 
M124.823219,494.296143 
	C113.444061,500.855377 102.113686,507.501923 90.649216,513.908508 
	C87.999306,515.389343 87.654945,516.821533 88.005104,519.786316 
	C88.615860,524.957520 88.112160,530.254456 88.210518,535.496155 
	C88.234360,536.766846 88.377907,538.740540 89.154770,539.183289 
	C97.353188,543.856140 105.691177,548.284119 113.904434,552.732971 
	C114.629112,551.958679 115.047142,551.650818 115.284317,551.238770 
	C127.312492,530.345032 139.363068,509.463928 151.227615,488.477631 
	C151.817825,487.433594 151.286697,484.898224 150.366928,484.075439 
	C149.222824,483.052002 146.686142,482.216888 145.520828,482.810883 
	C138.713486,486.280884 132.131454,490.192810 124.823219,494.296143 
M201.301514,484.080139 
	C197.085968,480.584747 194.196838,482.310638 191.766418,486.749634 
	C204.722809,508.601013 217.763748,530.594971 231.013458,552.940979 
	C239.273514,548.279785 247.086456,543.921143 254.822968,539.430786 
	C255.634949,538.959473 256.654205,537.526306 256.464813,536.851685 
	C254.459259,529.707886 255.249359,522.769531 258.117126,515.922241 
	C239.100449,505.260895 220.530838,494.850189 201.301514,484.080139 
M116.093651,687.434448 
	C125.593231,692.916748 135.043045,698.489624 144.652313,703.772400 
	C145.922028,704.470459 148.299286,704.232666 149.657608,703.495728 
	C154.411911,700.916382 159.034088,698.060059 163.506378,695.015076 
	C164.827072,694.115845 166.265701,692.274414 166.319107,690.816040 
	C166.598816,683.176636 166.291824,675.516785 166.520340,667.874023 
	C166.629730,664.214905 165.091446,663.467529 161.810501,663.481873 
	C138.862091,663.582214 115.912971,663.514221 92.964188,663.556335 
	C90.981544,663.559998 88.452141,662.770203 88.136253,666.237122 
	C87.882256,669.024658 87.144028,671.348206 90.681458,673.162903 
	C99.102074,677.482422 107.217003,682.397766 116.093651,687.434448 
M139.696777,618.205994 
	C123.718895,627.480652 107.733582,636.742554 91.772537,646.046082 
	C89.755486,647.221863 86.444832,648.097168 88.330177,651.313049 
	C89.089989,652.609070 91.720772,653.401855 93.506195,653.412659 
	C115.988503,653.548645 138.471939,653.506531 160.955078,653.484192 
	C162.706802,653.482483 164.458344,653.287537 166.495071,653.165344 
	C166.495071,645.419800 166.287277,638.260986 166.563644,631.120911 
	C166.768890,625.818359 166.732910,621.182434 159.875015,620.276611 
	C158.340530,620.073914 156.542831,619.083862 155.568405,617.885498 
	C150.401367,611.530823 145.415955,613.964844 139.696777,618.205994 
M254.157791,635.397583 
	C255.307327,636.067688 256.406128,636.854431 257.618042,637.381042 
	C259.534546,638.213745 261.073364,640.724182 263.720856,638.248108 
	C266.553772,635.598572 264.251099,633.723999 263.139465,631.738586 
	C252.088852,612.001465 240.980362,592.296692 229.870102,572.593018 
	C229.082642,571.196411 228.151993,569.880554 227.057800,568.166748 
	C219.150131,572.808472 211.675888,577.442749 203.949799,581.610107 
	C200.829636,583.293030 200.471924,584.985413 201.045853,588.287781 
	C201.711212,592.116394 201.640167,596.260986 200.917831,600.085083 
	C200.304016,603.334534 201.131302,604.733154 203.852554,606.284668 
	C220.467957,615.758362 236.972900,625.425842 254.157791,635.397583 
M101.321701,628.864197 
	C115.510933,620.611206 129.700165,612.358215 142.990082,604.628296 
	C142.990082,597.185486 142.990082,590.661255 142.990082,583.312805 
	C135.396515,578.652832 126.962502,573.477112 118.444344,568.249817 
	C117.732285,569.114990 117.242729,569.569214 116.920830,570.121216 
	C104.614021,591.225464 92.374146,612.369080 79.978828,633.421204 
	C77.890221,636.968384 80.170143,638.091919 82.597580,639.689575 
	C88.615410,636.197876 94.644936,632.699341 101.321701,628.864197 
M183.673096,492.879211 
	C181.915695,492.428833 180.158295,491.978485 177.755402,491.362671 
	C177.755402,494.383545 177.755524,496.195862 177.755386,498.008179 
	C177.753845,517.822083 177.954483,537.639526 177.608948,557.447388 
	C177.522202,562.419983 178.900055,564.858765 183.599762,566.488159 
	C186.941650,567.646790 189.712265,570.388306 192.853363,572.225952 
	C193.954666,572.870300 195.774460,573.611389 196.630569,573.144043 
	C204.752029,568.710205 212.736450,564.025269 221.061279,559.239563 
	C208.511978,536.974854 196.269882,515.255188 183.673096,492.879211 
M177.755219,637.502686 
	C177.755219,642.613342 177.755219,647.723999 177.755219,652.978882 
	C179.141754,653.198303 179.931885,653.431885 180.722260,653.432617 
	C204.531998,653.456360 228.342026,653.498474 252.150803,653.348633 
	C253.444626,653.340515 255.600525,651.846985 255.783066,650.776794 
	C255.985321,649.591064 254.712677,647.532959 253.510361,646.822388 
	C237.323212,637.256104 220.910294,628.066223 204.838837,618.312622 
	C198.821274,614.660522 194.789078,613.964111 187.565918,617.760986 
	C178.601791,622.473083 176.402710,627.819397 177.755219,637.502686 
M166.457993,512.500488 
	C166.456757,507.339203 166.613693,502.170288 166.364578,497.020996 
	C166.282440,495.323486 165.151093,493.676758 164.499512,492.006805 
	C163.097931,493.098053 161.207077,493.900940 160.368423,495.323975 
	C148.540802,515.392456 136.851227,535.542297 125.150879,555.685547 
	C124.508896,556.790771 124.066147,558.011658 123.417229,559.425964 
	C131.462753,564.059631 139.189774,568.624084 147.070816,572.904907 
	C148.059769,573.442017 150.042221,572.816345 151.252136,572.156799 
	C155.023926,570.100525 158.465622,567.345886 162.382919,565.678833 
	C165.498444,564.352905 166.571426,562.802490 166.533386,559.451721 
	C166.359543,544.136292 166.457520,528.817810 166.457993,512.500488 
M158.179916,710.694519 
	C152.030502,718.523071 151.158295,726.509216 155.666214,733.710144 
	C159.934601,740.528442 168.774033,744.307129 176.364487,742.558289 
	C183.511734,740.911560 189.985107,734.101624 190.992722,727.169495 
	C192.157562,719.155701 188.009781,710.449280 181.279633,706.781250 
	C174.134247,702.886963 165.821991,704.132507 158.179916,710.694519 
M170.921951,612.542175 
	C172.888687,612.366333 174.917313,612.441040 176.811874,611.973022 
	C187.108307,609.429443 193.199524,599.128967 190.545364,588.954956 
	C187.776352,578.340759 178.133286,572.424683 167.792969,574.996216 
	C158.631653,577.274658 152.745453,584.881042 152.932449,594.199707 
	C153.121292,603.611633 159.559021,610.419189 170.921951,612.542175 
M175.893188,481.984344 
	C177.303436,481.499664 178.774246,481.143036 180.114075,480.509430 
	C188.429626,476.576813 192.626511,468.265991 190.773697,459.542511 
	C188.866806,450.564484 181.088867,443.966461 172.465347,444.011627 
	C163.357101,444.059326 155.269302,450.501831 153.268768,459.303070 
	C150.352371,472.133667 160.178665,482.408752 175.893188,481.984344 
M41.297508,533.617371 
	C45.481865,544.260620 56.024624,549.964783 65.447929,546.683899 
	C73.762016,543.789185 79.449753,535.278015 78.890671,526.568176 
	C78.411133,519.097595 71.097496,511.235962 62.929840,509.411377 
	C55.713398,507.799286 46.826363,512.005371 43.272781,519.849304 
	C41.527351,523.702026 41.766178,528.453613 41.297508,533.617371 
M43.231071,669.108276 
	C52.446461,680.045288 68.656403,679.676025 75.545746,668.372070 
	C80.193703,660.745789 78.669350,650.820312 71.915222,644.733154 
	C65.170784,638.654724 54.497086,638.467896 47.084988,644.298523 
	C39.459633,650.296936 37.927811,659.060791 43.231071,669.108276 
M294.854279,512.494385 
	C294.130920,512.084717 293.428864,511.630493 292.680878,511.272247 
	C285.167664,507.673706 278.281372,508.633759 272.427429,514.077332 
	C266.842285,519.270874 264.734436,528.134521 267.406799,535.188965 
	C270.061218,542.196045 276.727478,546.834900 284.355652,546.983398 
	C292.708344,547.145874 299.525848,543.112122 302.036377,536.522095 
	C305.442108,527.582031 303.164246,519.387024 294.854279,512.494385 
M288.785583,640.319336 
	C276.516266,639.109619 266.405426,646.541504 265.887787,657.150024 
	C265.372528,667.710266 272.122681,675.588135 282.836975,676.931091 
	C292.792053,678.178894 301.737793,672.029419 303.762848,662.546204 
	C305.826965,652.879944 299.891205,643.684387 288.785583,640.319336 
z"/>
<path fill="#FEFEFF" opacity="1.000000" stroke="none" 
	d="
M501.593414,533.270630 
	C511.806061,533.163086 521.598145,533.163086 531.892700,533.163086 
	C531.892700,537.068604 531.892700,540.131226 531.892700,542.433838 
	C538.666748,539.249329 545.005554,535.026733 551.971008,533.219238 
	C576.624023,526.821533 604.774597,540.615112 616.216553,563.417297 
	C627.259033,585.423218 625.774780,621.150818 605.286926,640.642456 
	C597.861511,647.706848 589.130615,652.264099 579.254089,655.652954 
	C571.685364,656.255310 564.355469,657.319092 557.122437,656.859558 
	C546.585510,656.190186 537.683411,651.689148 531.283081,642.305725 
	C531.283081,661.446289 531.283081,680.415527 531.283081,699.588379 
	C519.113892,699.588379 507.372040,699.588379 495.306091,699.588379 
	C495.306091,644.277832 495.306091,589.228394 495.306091,533.767334 
	C497.272308,533.636963 499.222565,533.507568 501.593414,533.270630 
M552.369995,564.617310 
	C546.343079,565.880493 541.092468,568.399719 537.164612,573.392578 
	C529.713684,582.863708 529.199585,593.501343 531.856323,604.608032 
	C534.370117,615.117065 540.995117,621.791199 551.576599,624.128296 
	C562.469604,626.534119 572.280518,623.908325 579.828857,615.714233 
	C588.374756,606.437195 589.699646,590.180603 583.672058,578.690613 
	C578.137817,568.141113 567.106628,562.975769 552.369995,564.617310 
z"/>
<path fill="#FDFDFF" opacity="1.000000" stroke="none" 
	d="
M467.925232,597.088318 
	C479.150177,609.807434 478.831818,629.977600 466.884338,642.468872 
	C446.384125,663.902222 398.435120,665.300720 380.760345,632.632202 
	C379.276855,629.890198 378.291168,626.878906 376.893341,623.563782 
	C386.008057,620.630432 394.628479,617.708008 403.372894,615.221558 
	C404.519867,614.895386 406.878021,616.438843 407.697083,617.734619 
	C413.244904,626.511353 421.474396,630.467957 430.496490,628.046814 
	C432.492249,627.511230 434.521118,626.364441 436.052277,624.969421 
	C440.739380,620.699036 440.245697,615.721008 434.613586,612.898743 
	C429.875183,610.524231 424.656555,609.126160 419.827576,606.910095 
	C412.288696,603.450500 404.469696,600.336365 397.526215,595.893127 
	C375.146362,581.572021 377.232697,551.187805 398.216980,538.660034 
	C416.330597,527.846130 444.327240,529.580078 459.228699,543.815613 
	C464.970398,549.300720 469.273712,555.728882 471.762878,563.789673 
	C461.585388,566.511169 451.521240,569.202332 441.078949,571.994568 
	C440.166321,570.260559 439.403290,568.636719 438.488312,567.103577 
	C435.183075,561.565186 427.459015,559.262390 421.907837,562.111877 
	C416.835510,564.715576 416.153687,571.053406 420.806091,574.354187 
	C422.935638,575.865051 425.508972,576.820679 427.981598,577.764832 
	C435.909515,580.791809 444.097076,583.237793 451.770630,586.799438 
	C457.410706,589.417236 462.401703,593.433655 467.925232,597.088318 
z"/>
<path fill="#FEFDFF" opacity="1.000000" stroke="none" 
	d="
M971.845520,603.000000 
	C971.845459,620.462036 971.845459,637.424072 971.845459,655.177124 
	C964.820496,655.177124 958.233276,655.177368 951.646057,655.177002 
	C947.314453,655.176758 942.981262,655.103577 938.651733,655.198608 
	C935.391418,655.270142 933.398376,654.631470 934.639282,650.636475 
	C935.153625,648.980713 934.877686,647.079529 934.908020,646.430359 
	C928.305481,649.595093 921.749634,654.264771 914.500427,655.947510 
	C883.368958,663.173950 852.195618,642.789795 845.488953,611.395874 
	C841.040283,590.571411 843.463562,570.893311 856.885925,553.595886 
	C871.710754,534.490845 899.336243,526.396545 920.641541,534.995789 
	C925.451599,536.937256 929.740112,540.170959 934.794922,543.116394 
	C934.794922,534.282043 934.794983,525.537292 934.794983,516.792542 
	C934.794983,508.008148 934.794922,499.223724 934.794922,490.131287 
	C947.273254,490.131287 959.186523,490.131287 971.845581,490.131287 
	C971.845581,527.658630 971.845581,565.079346 971.845520,603.000000 
M936.000305,590.741150 
	C934.557678,571.316956 919.118408,560.212219 900.458252,565.177490 
	C884.256287,569.488647 875.767883,585.723755 880.364685,603.608765 
	C885.534851,623.724731 910.787842,631.828613 926.689514,618.410095 
	C935.022888,611.378052 936.371704,601.791504 936.000305,590.741150 
z"/>
<path fill="#FEFDFF" opacity="1.000000" stroke="none" 
	d="
M1148.968872,620.095947 
	C1152.034058,623.123962 1155.099243,626.151917 1158.469727,629.341125 
	C1162.033203,632.563721 1165.291382,635.625061 1168.778320,638.901306 
	C1159.008301,648.974670 1147.530273,654.204468 1134.623779,656.268188 
	C1112.193481,659.854675 1091.350830,656.010559 1073.573975,641.109497 
	C1052.089233,623.100098 1046.218506,590.261780 1059.611816,565.447144 
	C1060.403198,563.981079 1061.208374,562.522461 1062.114990,560.740845 
	C1069.917480,549.841736 1079.668701,541.889160 1091.718994,536.634155 
	C1118.390503,525.003174 1149.699463,533.412903 1166.197144,557.381165 
	C1176.484253,572.326477 1177.174438,589.317322 1175.219116,607.213806 
	C1164.819580,607.213806 1154.864502,607.213806 1143.985718,607.226196 
	C1126.381958,607.290039 1109.701782,607.341492 1092.682373,607.319092 
	C1091.988403,607.834412 1091.633667,608.423645 1091.328857,609.345459 
	C1096.006226,619.577454 1103.963867,624.763245 1114.652588,625.914978 
	C1124.723511,627.000122 1134.465332,625.642090 1143.824951,621.655334 
	C1145.463623,620.957336 1147.250488,620.606934 1148.968872,620.095947 
M1098.663208,581.175049 
	C1113.006714,581.175049 1127.350342,581.175049 1141.942993,581.175049 
	C1138.490723,569.619141 1127.677734,562.509705 1115.456421,563.043945 
	C1104.408203,563.526978 1093.038818,571.980469 1091.730957,581.175049 
	C1093.760498,581.175049 1095.740601,581.175049 1098.663208,581.175049 
z"/>
<path fill="#FDFDFF" opacity="1.000000" stroke="none" 
	d="
M811.077515,544.930176 
	C818.733643,552.994873 823.360779,562.616394 823.650940,572.977722 
	C824.409546,600.064209 823.906616,627.186035 823.906616,654.734619 
	C812.439514,654.734619 800.430603,654.734619 787.819153,654.734619 
	C787.819153,652.799377 787.819275,651.018494 787.819092,649.237549 
	C787.817078,629.584656 787.936157,609.930420 787.730591,590.279663 
	C787.677185,585.167603 787.039795,579.968506 785.904724,574.983765 
	C784.359253,568.197083 779.593384,564.580505 772.762878,563.982239 
	C756.526184,562.560059 741.185669,576.572266 741.180847,592.841980 
	C741.174744,613.317261 741.179382,633.792480 741.179382,654.715088 
	C728.872681,654.715088 716.851074,654.715088 704.499695,654.715088 
	C704.499695,614.552246 704.499695,574.480408 704.499695,533.945740 
	C716.500549,533.945740 728.528320,533.945740 741.060425,533.945740 
	C741.060425,540.093323 741.060425,546.157593 741.060425,553.649170 
	C750.698547,539.390381 762.825867,531.983276 778.857239,531.906128 
	C791.197937,531.846802 802.088379,535.634094 811.077515,544.930176 
z"/>
<path fill="#FBFAFF" opacity="1.000000" stroke="none" 
	d="
M995.385986,490.470886 
	C1006.348389,489.943481 1017.335571,489.970734 1028.318604,489.771393 
	C1031.605591,489.711761 1032.618042,490.882721 1032.585327,494.127075 
	C1032.464600,506.110931 1032.597412,518.097351 1032.760010,530.536865 
	C1032.781860,534.144653 1032.590698,537.298279 1032.588623,540.452026 
	C1032.564697,576.742737 1032.497437,613.033813 1032.659790,649.323792 
	C1032.679565,653.744812 1031.754517,655.520813 1026.949829,655.306458 
	C1018.310547,654.920959 1009.634094,654.980530 1000.988464,655.286743 
	C996.676086,655.439453 995.318909,654.263428 995.336365,649.751831 
	C995.505310,606.137024 995.430542,562.521301 995.423767,518.905823 
	C995.422363,509.583466 995.414185,500.261078 995.385986,490.470886 
z"/>
<path fill="#FDFDFF" opacity="1.000000" stroke="none" 
	d="
M680.173462,583.000000 
	C680.173462,607.122864 680.173462,630.745789 680.173462,654.762817 
	C667.888123,654.762817 655.989929,654.762817 643.632507,654.762817 
	C643.632507,614.645081 643.632507,574.458984 643.632507,533.880737 
	C655.580200,533.880737 667.634583,533.880737 680.173523,533.880737 
	C680.173523,550.245605 680.173523,566.372803 680.173462,583.000000 
z"/>
<path fill="#FDFDFF" opacity="1.000000" stroke="none" 
	d="
M659.003418,489.832855 
	C666.138428,489.832855 672.774414,489.832855 679.792114,489.832855 
	C679.792114,500.285889 679.792114,510.328400 679.792114,520.687378 
	C667.777649,520.687378 655.861694,520.687378 643.559387,520.687378 
	C643.559387,510.614624 643.559387,500.567474 643.559387,489.832855 
	C648.633301,489.832855 653.568909,489.832855 659.003418,489.832855 
z"/>
<path fill="#6C49F3" opacity="1.000000" stroke="none" 
	d="
M1149.112183,619.798462 
	C1147.250488,620.606934 1145.463623,620.957336 1143.824951,621.655334 
	C1134.465332,625.642090 1124.723511,627.000122 1114.652588,625.914978 
	C1103.963867,624.763245 1096.006226,619.577454 1091.561768,609.258240 
	C1092.170288,608.356689 1092.596069,607.874817 1093.021729,607.393005 
	C1109.701782,607.341492 1126.381958,607.290039 1143.524048,607.316284 
	C1143.721924,610.965942 1145.030518,612.780457 1148.938232,613.192993 
	C1151.085449,613.419617 1153.058350,615.297607 1156.069336,616.961060 
	C1152.679688,618.224548 1150.967651,618.862732 1149.112183,619.798462 
z"/>
<path fill="#643FF2" opacity="1.000000" stroke="none" 
	d="
M51.781586,629.169067 
	C51.829880,629.335632 51.694576,629.668213 51.271805,630.055481 
	C51.157619,629.827087 51.362171,629.568726 51.781586,629.169067 
z"/>
<path fill="#643FF2" opacity="1.000000" stroke="none" 
	d="
M51.096558,556.964111 
	C51.292065,556.945679 51.630707,557.156677 51.964893,557.681885 
	C51.720192,557.728577 51.479946,557.461060 51.096558,556.964111 
z"/>
<path fill="#643EF2" opacity="1.000000" stroke="none" 
	d="
M62.204865,594.999878 
	C62.204956,582.524475 62.204956,570.549133 62.204956,560.273987 
	C69.202873,556.286804 75.117569,552.849426 81.121140,549.575012 
	C81.941498,549.127563 83.422226,549.098450 84.229828,549.543030 
	C92.082657,553.866028 99.857140,558.331299 108.018021,562.962585 
	C107.081108,564.707825 106.357552,566.137939 105.561424,567.526367 
	C94.709595,586.451355 83.674973,605.274963 73.109032,624.358032 
	C70.442650,629.173828 67.801208,631.149658 62.204777,627.979492 
	C62.204777,617.432312 62.204777,606.466125 62.204865,594.999878 
z"/>
<path fill="#6641F2" opacity="1.000000" stroke="none" 
	d="
M257.872314,601.078247 
	C250.574402,588.363220 243.451050,575.969788 236.008698,563.021423 
	C244.229263,558.369263 252.265884,553.762085 260.395325,549.325073 
	C261.099274,548.940857 262.534973,549.457275 263.429321,549.933655 
	C269.207062,553.010986 274.928772,556.193481 281.591309,559.847412 
	C281.591309,581.629700 281.591309,604.987854 281.591309,628.259827 
	C276.504608,630.899170 273.566345,629.469604 271.060944,624.407166 
	C267.158783,616.522400 262.427002,609.048157 257.872314,601.078247 
z"/>
<path fill="#643DF2" opacity="1.000000" stroke="none" 
	d="
M233.000214,663.534302 
	C238.493530,663.534424 243.523575,663.913757 248.470490,663.434753 
	C254.106628,662.888977 257.320648,664.661255 257.542297,670.962402 
	C257.356293,671.128235 256.940094,671.654114 256.399261,671.958984 
	C237.710297,682.495911 218.971207,692.944763 200.349319,703.598511 
	C197.336273,705.322266 195.725616,704.816101 193.113983,702.629028 
	C189.500473,699.603210 184.974197,697.683960 180.929382,695.146423 
	C179.725143,694.390991 177.948837,693.173401 177.922333,692.129700 
	C177.686722,682.853882 177.785309,673.569580 177.785309,663.534363 
	C196.355637,663.534363 214.427917,663.534363 233.000214,663.534302 
z"/>
<path fill="#643EF2" opacity="1.000000" stroke="none" 
	d="
M125.148285,494.125854 
	C132.131454,490.192810 138.713486,486.280884 145.520828,482.810883 
	C146.686142,482.216888 149.222824,483.052002 150.366928,484.075439 
	C151.286697,484.898224 151.817825,487.433594 151.227615,488.477631 
	C139.363068,509.463928 127.312492,530.345032 115.284317,551.238770 
	C115.047142,551.650818 114.629112,551.958679 113.904434,552.732971 
	C105.691177,548.284119 97.353188,543.856140 89.154770,539.183289 
	C88.377907,538.740540 88.234360,536.766846 88.210518,535.496155 
	C88.112160,530.254456 88.615860,524.957520 88.005104,519.786316 
	C87.654945,516.821533 87.999306,515.389343 90.649216,513.908508 
	C102.113686,507.501923 113.444061,500.855377 125.148285,494.125854 
z"/>
<path fill="#6641F2" opacity="1.000000" stroke="none" 
	d="
M201.631378,484.259827 
	C220.530838,494.850189 239.100449,505.260895 258.117126,515.922241 
	C255.249359,522.769531 254.459259,529.707886 256.464813,536.851685 
	C256.654205,537.526306 255.634949,538.959473 254.822968,539.430786 
	C247.086456,543.921143 239.273514,548.279785 231.013458,552.940979 
	C217.763748,530.594971 204.722809,508.601013 191.766418,486.749634 
	C194.196838,482.310638 197.085968,480.584747 201.631378,484.259827 
z"/>
<path fill="#623CF2" opacity="1.000000" stroke="none" 
	d="
M115.774536,687.253418 
	C107.217003,682.397766 99.102074,677.482422 90.681458,673.162903 
	C87.144028,671.348206 87.882256,669.024658 88.136253,666.237122 
	C88.452141,662.770203 90.981544,663.559998 92.964188,663.556335 
	C115.912971,663.514221 138.862091,663.582214 161.810501,663.481873 
	C165.091446,663.467529 166.629730,664.214905 166.520340,667.874023 
	C166.291824,675.516785 166.598816,683.176636 166.319107,690.816040 
	C166.265701,692.274414 164.827072,694.115845 163.506378,695.015076 
	C159.034088,698.060059 154.411911,700.916382 149.657608,703.495728 
	C148.299286,704.232666 145.922028,704.470459 144.652313,703.772400 
	C135.043045,698.489624 125.593231,692.916748 115.774536,687.253418 
z"/>
<path fill="#6540F2" opacity="1.000000" stroke="none" 
	d="
M140.021545,618.037964 
	C145.415955,613.964844 150.401367,611.530823 155.568405,617.885498 
	C156.542831,619.083862 158.340530,620.073914 159.875015,620.276611 
	C166.732910,621.182434 166.768890,625.818359 166.563644,631.120911 
	C166.287277,638.260986 166.495071,645.419800 166.495071,653.165344 
	C164.458344,653.287537 162.706802,653.482483 160.955078,653.484192 
	C138.471939,653.506531 115.988503,653.548645 93.506195,653.412659 
	C91.720772,653.401855 89.089989,652.609070 88.330177,651.313049 
	C86.444832,648.097168 89.755486,647.221863 91.772537,646.046082 
	C107.733582,636.742554 123.718895,627.480652 140.021545,618.037964 
z"/>
<path fill="#6640F2" opacity="1.000000" stroke="none" 
	d="
M253.836243,635.213135 
	C236.972900,625.425842 220.467957,615.758362 203.852554,606.284668 
	C201.131302,604.733154 200.304016,603.334534 200.917831,600.085083 
	C201.640167,596.260986 201.711212,592.116394 201.045853,588.287781 
	C200.471924,584.985413 200.829636,583.293030 203.949799,581.610107 
	C211.675888,577.442749 219.150131,572.808472 227.057800,568.166748 
	C228.151993,569.880554 229.082642,571.196411 229.870102,572.593018 
	C240.980362,592.296692 252.088852,612.001465 263.139465,631.738586 
	C264.251099,633.723999 266.553772,635.598572 263.720856,638.248108 
	C261.073364,640.724182 259.534546,638.213745 257.618042,637.381042 
	C256.406128,636.854431 255.307327,636.067688 253.836243,635.213135 
z"/>
<path fill="#643DF2" opacity="1.000000" stroke="none" 
	d="
M100.998077,629.032532 
	C94.644936,632.699341 88.615410,636.197876 82.597580,639.689575 
	C80.170143,638.091919 77.890221,636.968384 79.978828,633.421204 
	C92.374146,612.369080 104.614021,591.225464 116.920830,570.121216 
	C117.242729,569.569214 117.732285,569.114990 118.444344,568.249817 
	C126.962502,573.477112 135.396515,578.652832 142.990082,583.312805 
	C142.990082,590.661255 142.990082,597.185486 142.990082,604.628296 
	C129.700165,612.358215 115.510933,620.611206 100.998077,629.032532 
z"/>
<path fill="#653FF2" opacity="1.000000" stroke="none" 
	d="
M183.850433,493.207336 
	C196.269882,515.255188 208.511978,536.974854 221.061279,559.239563 
	C212.736450,564.025269 204.752029,568.710205 196.630569,573.144043 
	C195.774460,573.611389 193.954666,572.870300 192.853363,572.225952 
	C189.712265,570.388306 186.941650,567.646790 183.599762,566.488159 
	C178.900055,564.858765 177.522202,562.419983 177.608948,557.447388 
	C177.954483,537.639526 177.753845,517.822083 177.755386,498.008179 
	C177.755524,496.195862 177.755402,494.383545 177.755402,491.362671 
	C180.158295,491.978485 181.915695,492.428833 183.850433,493.207336 
z"/>
<path fill="#643EF2" opacity="1.000000" stroke="none" 
	d="
M177.755402,637.004639 
	C176.402710,627.819397 178.601791,622.473083 187.565918,617.760986 
	C194.789078,613.964111 198.821274,614.660522 204.838837,618.312622 
	C220.910294,628.066223 237.323212,637.256104 253.510361,646.822388 
	C254.712677,647.532959 255.985321,649.591064 255.783066,650.776794 
	C255.600525,651.846985 253.444626,653.340515 252.150803,653.348633 
	C228.342026,653.498474 204.531998,653.456360 180.722260,653.432617 
	C179.931885,653.431885 179.141754,653.198303 177.755219,652.978882 
	C177.755219,647.723999 177.755219,642.613342 177.755402,637.004639 
z"/>
<path fill="#643EF2" opacity="1.000000" stroke="none" 
	d="
M166.457916,513.000488 
	C166.457520,528.817810 166.359543,544.136292 166.533386,559.451721 
	C166.571426,562.802490 165.498444,564.352905 162.382919,565.678833 
	C158.465622,567.345886 155.023926,570.100525 151.252136,572.156799 
	C150.042221,572.816345 148.059769,573.442017 147.070816,572.904907 
	C139.189774,568.624084 131.462753,564.059631 123.417229,559.425964 
	C124.066147,558.011658 124.508896,556.790771 125.150879,555.685547 
	C136.851227,535.542297 148.540802,515.392456 160.368423,495.323975 
	C161.207077,493.900940 163.097931,493.098053 164.499512,492.006805 
	C165.151093,493.676758 166.282440,495.323486 166.364578,497.020996 
	C166.613693,502.170288 166.456757,507.339203 166.457916,513.000488 
z"/>
<path fill="#643DF2" opacity="1.000000" stroke="none" 
	d="
M158.432907,710.430664 
	C165.821991,704.132507 174.134247,702.886963 181.279633,706.781250 
	C188.009781,710.449280 192.157562,719.155701 190.992722,727.169495 
	C189.985107,734.101624 183.511734,740.911560 176.364487,742.558289 
	C168.774033,744.307129 159.934601,740.528442 155.666214,733.710144 
	C151.158295,726.509216 152.030502,718.523071 158.432907,710.430664 
z"/>
<path fill="#643FF2" opacity="1.000000" stroke="none" 
	d="
M170.528839,612.466797 
	C159.559021,610.419189 153.121292,603.611633 152.932449,594.199707 
	C152.745453,584.881042 158.631653,577.274658 167.792969,574.996216 
	C178.133286,572.424683 187.776352,578.340759 190.545364,588.954956 
	C193.199524,599.128967 187.108307,609.429443 176.811874,611.973022 
	C174.917313,612.441040 172.888687,612.366333 170.528839,612.466797 
z"/>
<path fill="#6540F2" opacity="1.000000" stroke="none" 
	d="
M175.467194,482.027100 
	C160.178665,482.408752 150.352371,472.133667 153.268768,459.303070 
	C155.269302,450.501831 163.357101,444.059326 172.465347,444.011627 
	C181.088867,443.966461 188.866806,450.564484 190.773697,459.542511 
	C192.626511,468.265991 188.429626,476.576813 180.114075,480.509430 
	C178.774246,481.143036 177.303436,481.499664 175.467194,482.027100 
z"/>
<path fill="#633DF2" opacity="1.000000" stroke="none" 
	d="
M41.202271,533.207886 
	C41.766178,528.453613 41.527351,523.702026 43.272781,519.849304 
	C46.826363,512.005371 55.713398,507.799286 62.929840,509.411377 
	C71.097496,511.235962 78.411133,519.097595 78.890671,526.568176 
	C79.449753,535.278015 73.762016,543.789185 65.447929,546.683899 
	C56.024624,549.964783 45.481865,544.260620 41.202271,533.207886 
z"/>
<path fill="#623CF2" opacity="1.000000" stroke="none" 
	d="
M43.047226,668.779480 
	C37.927811,659.060791 39.459633,650.296936 47.084988,644.298523 
	C54.497086,638.467896 65.170784,638.654724 71.915222,644.733154 
	C78.669350,650.820312 80.193703,660.745789 75.545746,668.372070 
	C68.656403,679.676025 52.446461,680.045288 43.047226,668.779480 
z"/>
<path fill="#6742F2" opacity="1.000000" stroke="none" 
	d="
M295.162659,512.698364 
	C303.164246,519.387024 305.442108,527.582031 302.036377,536.522095 
	C299.525848,543.112122 292.708344,547.145874 284.355652,546.983398 
	C276.727478,546.834900 270.061218,542.196045 267.406799,535.188965 
	C264.734436,528.134521 266.842285,519.270874 272.427429,514.077332 
	C278.281372,508.633759 285.167664,507.673706 292.680878,511.272247 
	C293.428864,511.630493 294.130920,512.084717 295.162659,512.698364 
z"/>
<path fill="#6640F2" opacity="1.000000" stroke="none" 
	d="
M289.177765,640.439148 
	C299.891205,643.684387 305.826965,652.879944 303.762848,662.546204 
	C301.737793,672.029419 292.792053,678.178894 282.836975,676.931091 
	C272.122681,675.588135 265.372528,667.710266 265.887787,657.150024 
	C266.405426,646.541504 276.516266,639.109619 289.177765,640.439148 
z"/>
<path fill="#6A46F3" opacity="1.000000" stroke="none" 
	d="
M552.788208,564.521240 
	C567.106628,562.975769 578.137817,568.141113 583.672058,578.690613 
	C589.699646,590.180603 588.374756,606.437195 579.828857,615.714233 
	C572.280518,623.908325 562.469604,626.534119 551.576599,624.128296 
	C540.995117,621.791199 534.370117,615.117065 531.856323,604.608032 
	C529.199585,593.501343 529.713684,582.863708 537.164612,573.392578 
	C541.092468,568.399719 546.343079,565.880493 552.788208,564.521240 
z"/>
<path fill="#704CF3" opacity="1.000000" stroke="none" 
	d="
M936.019043,591.206055 
	C936.371704,601.791504 935.022888,611.378052 926.689514,618.410095 
	C910.787842,631.828613 885.534851,623.724731 880.364685,603.608765 
	C875.767883,585.723755 884.256287,569.488647 900.458252,565.177490 
	C919.118408,560.212219 934.557678,571.316956 936.019043,591.206055 
z"/>
<path fill="#7351F3" opacity="1.000000" stroke="none" 
	d="
M1098.191895,581.175049 
	C1095.740601,581.175049 1093.760498,581.175049 1091.730957,581.175049 
	C1093.038818,571.980469 1104.408203,563.526978 1115.456421,563.043945 
	C1127.677734,562.509705 1138.490723,569.619141 1141.942993,581.175049 
	C1127.350342,581.175049 1113.006714,581.175049 1098.191895,581.175049 
z"/>
<path fill="#7452F4" opacity="1.000000" stroke="none" 
	d="
M1092.682373,607.319092 
	C1092.596069,607.874817 1092.170288,608.356689 1091.511719,608.925659 
	C1091.633667,608.423645 1091.988403,607.834412 1092.682373,607.319092 
z"/>
</svg>