<?xml version="1.0" standalone="no"?>
<!DOCTYPE svg PUBLIC "-//W3C//DTD SVG 20010904//EN"
 "http://www.w3.org/TR/2001/REC-SVG-20010904/DTD/svg10.dtd">
<svg version="1.0" xmlns="http://www.w3.org/2000/svg"
 width="300.000000pt" height="298.000000pt" viewBox="0 0 300.000000 298.000000"
 preserveAspectRatio="xMidYMid meet">
<metadata>
Created by potrace 1.10, written by Peter Selinger 2001-2011
</metadata>
<g transform="translate(0.000000,298.000000) scale(0.100000,-0.100000)"
fill="#000000" stroke="none">
<path d="M1340 2470 c-166 -21 -315 -123 -400 -273 -30 -53 -38 -60 -116 -97
-189 -88 -304 -268 -304 -475 0 -99 24 -184 75 -269 l35 -58 -6 -97 c-11 -162
31 -290 129 -397 106 -117 233 -174 386 -174 86 0 87 0 144 -42 97 -73 176
-101 293 -106 76 -3 116 0 160 13 138 40 260 136 323 255 28 53 40 64 80 81
93 39 117 55 187 125 121 120 179 281 156 430 -14 88 -42 166 -83 228 -31 46
-31 46 -19 116 27 158 -31 320 -161 449 -52 52 -157 112 -229 131 -24 7 -83
12 -129 12 -82 0 -86 1 -135 38 -121 90 -251 127 -386 110z m213 -61 c72 -24
117 -50 170 -98 37 -34 38 -34 130 -32 67 2 109 -3 154 -17 169 -53 301 -205
333 -382 12 -63 7 -159 -9 -203 -6 -16 1 -34 29 -77 78 -115 105 -249 76 -373
-40 -172 -155 -303 -310 -355 -56 -19 -60 -22 -89 -83 -37 -77 -131 -176 -202
-212 -192 -97 -414 -69 -561 69 -30 28 -33 29 -117 26 -67 -3 -102 1 -156 17
-137 42 -261 156 -311 288 -27 70 -38 211 -21 278 11 43 10 46 -25 95 -104
145 -113 357 -23 516 55 98 147 174 256 214 59 21 62 24 94 89 56 113 166 206
294 246 67 21 216 18 288 -6z"/>
<path d="M1309 2297 c-107 -30 -200 -114 -241 -216 -21 -52 -23 -74 -26 -317
l-3 -260 80 -47 c44 -26 83 -47 86 -47 3 0 5 128 5 285 l0 285 38 23 c20 13
114 68 209 123 123 70 169 102 162 110 -5 6 -36 23 -69 38 -72 33 -173 42
-241 23z m193 -48 c22 -5 38 -15 35 -22 -2 -6 -73 -51 -158 -100 -85 -48 -165
-99 -179 -113 l-25 -24 -5 -244 c-3 -135 -8 -247 -12 -251 -12 -12 -68 25 -74
50 -3 13 -4 127 -2 252 3 225 4 229 31 283 32 66 61 99 113 134 78 51 172 63
276 35z"/>
<path d="M1775 2149 c-22 -5 -140 -67 -262 -137 l-223 -127 0 -92 c0 -51 2
-93 5 -93 3 0 111 61 240 136 130 75 246 136 258 136 12 0 111 -52 221 -116
109 -64 201 -116 204 -116 13 0 -8 160 -27 203 -30 70 -110 149 -181 181 -68
31 -170 41 -235 25z m141 -40 c136 -25 232 -120 259 -256 5 -24 3 -33 -7 -33
-7 0 -87 43 -177 95 -124 71 -174 95 -201 95 -27 0 -82 -27 -233 -115 -110
-63 -203 -115 -208 -115 -5 0 -9 19 -9 43 0 44 1 45 74 87 327 186 337 192
406 203 14 2 28 5 31 6 3 0 32 -4 65 -10z"/>
<path d="M867 1939 c-59 -31 -116 -95 -150 -167 -28 -58 -32 -78 -31 -147 0
-69 5 -90 31 -145 16 -36 49 -83 72 -106 22 -22 135 -95 251 -162 l209 -121
81 46 c45 25 78 49 73 53 -4 4 -111 67 -238 140 -126 72 -233 137 -237 143 -4
7 -8 119 -8 250 0 130 -3 237 -7 237 -5 -1 -25 -10 -46 -21z m13 -262 c0 -208
4 -225 63 -264 18 -11 109 -65 204 -119 95 -55 171 -103 169 -109 -1 -5 -17
-18 -34 -28 -35 -21 -26 -24 -172 61 -52 30 -126 73 -165 95 -113 66 -151 100
-187 175 -29 58 -33 76 -32 142 1 91 27 152 91 219 36 37 46 43 53 31 5 -8 10
-100 10 -203z"/>
<path d="M1667 1812 c-43 -24 -76 -46 -75 -47 2 -1 107 -62 233 -134 127 -73
238 -142 248 -153 16 -19 17 -42 15 -255 -2 -128 -1 -233 2 -233 3 0 28 13 56
29 63 36 109 88 143 161 22 46 26 69 26 145 0 76 -4 99 -26 145 -50 106 -71
123 -383 304 -82 47 -152 85 -155 85 -3 -1 -41 -22 -84 -47z m292 -117 c108
-63 212 -129 230 -147 58 -56 86 -130 86 -223 0 -93 -21 -148 -80 -214 -63
-69 -65 -65 -65 144 0 208 -6 236 -61 277 -31 23 -284 171 -351 205 -15 8 -30
18 -33 23 -6 9 51 50 69 50 5 0 97 -52 205 -115z"/>
<path d="M1388 1651 l-98 -56 3 -120 2 -119 100 -58 c55 -32 105 -57 110 -55
6 1 54 27 108 57 l97 55 0 120 0 120 -99 58 c-55 31 -106 57 -113 56 -7 -1
-57 -27 -110 -58z m197 -31 c81 -45 85 -51 85 -151 0 -82 -13 -101 -104 -149
l-66 -35 -52 29 c-114 63 -109 55 -106 164 l3 97 70 42 c38 24 76 43 83 43 8
0 47 -18 87 -40z"/>
<path d="M1798 1269 c2 -221 0 -275 -12 -293 -7 -11 -104 -73 -214 -136 -110
-63 -199 -117 -197 -120 2 -4 28 -18 57 -33 191 -97 406 -23 496 171 27 57 27
59 30 323 l3 267 -76 46 c-42 25 -79 46 -83 46 -4 0 -6 -122 -4 -271z m87 179
c14 -6 28 -21 31 -33 3 -12 4 -129 2 -261 -3 -237 -3 -239 -30 -290 -34 -65
-115 -138 -175 -158 -60 -21 -173 -21 -221 0 -36 15 -36 16 -17 30 11 8 83 51
160 96 77 44 148 88 159 97 41 35 46 70 46 306 0 136 4 225 10 225 5 0 21 -5
35 -12z"/>
<path d="M1465 1114 c-126 -73 -240 -134 -253 -134 -12 0 -108 50 -213 111
-106 61 -198 113 -205 116 -19 7 -18 -66 1 -142 48 -183 228 -300 410 -265 47
9 108 38 282 138 l223 127 0 93 c0 50 -3 92 -7 91 -5 0 -111 -61 -238 -135z
m203 20 c1 -16 -1 -34 -6 -41 -11 -17 -368 -222 -415 -239 -51 -18 -154 -20
-203 -4 -113 37 -214 158 -214 257 0 30 17 29 73 -6 116 -74 285 -161 313
-161 16 0 45 10 64 22 19 11 53 31 75 43 22 12 96 54 165 94 69 39 129 70 135
68 5 -2 11 -17 13 -33z"/>
</g>
</svg>
