<svg version="1.1" id="Layer_1" xmlns="http://www.w3.org/2000/svg" xmlns:xlink="http://www.w3.org/1999/xlink" x="0px" y="0px"
	 width="100%" viewBox="0 0 1200 1202" enable-background="new 0 0 1200 1202" xml:space="preserve">
<path fill="#000000" opacity="1.000000" stroke="none" 
	d="
M647.000000,1203.000000 
	C431.333344,1203.000000 216.166672,1203.000000 1.000000,1203.000000 
	C1.000000,802.333313 1.000000,401.666656 1.000000,1.000000 
	C401.000000,1.000000 801.000000,1.000000 1201.000000,1.000000 
	C1201.000000,401.666656 1201.000000,802.333313 1201.000000,1203.000000 
	C1016.500000,1203.000000 832.000000,1203.000000 647.000000,1203.000000 
M143.339462,458.176605 
	C143.226303,461.159698 142.746536,464.186249 143.093994,467.114685 
	C143.515945,470.671143 141.834274,472.431580 139.077118,474.011597 
	C121.710266,483.963806 104.268967,493.796295 87.131317,504.131073 
	C82.838631,506.719727 80.206924,506.659851 76.051765,503.815552 
	C64.746391,496.076691 52.327389,497.571411 42.089787,504.701965 
	C33.511162,510.677032 27.667349,522.299011 30.957560,534.609009 
	C33.626366,544.594116 38.992905,552.350037 48.836044,555.623779 
	C52.506859,556.844604 53.079784,558.153442 53.040470,561.305054 
	C52.926163,570.468689 52.999992,579.634705 53.000000,588.799744 
	C53.000011,602.434082 53.000000,616.068359 53.000000,629.466614 
	C51.154560,630.420349 49.762897,631.364990 48.228203,631.897034 
	C36.333214,636.020386 31.135374,645.506775 30.253136,656.929688 
	C29.465590,667.126587 33.695084,675.984985 42.494030,682.157959 
	C54.396675,690.508240 66.146706,690.029419 78.013893,682.071594 
	C79.409096,681.135986 81.944626,680.147400 83.037292,680.775024 
	C101.800415,691.553223 120.323143,702.752625 139.158203,713.400391 
	C142.602524,715.347534 143.297470,717.364746 143.017197,720.682312 
	C142.358414,728.480896 144.170288,735.973511 148.781509,742.022766 
	C157.458664,753.405823 171.012451,756.649048 182.978577,751.979126 
	C196.742615,746.607483 205.047836,731.400757 201.270111,718.414978 
	C200.943817,717.293457 202.512268,714.897522 203.810425,714.143555 
	C212.396042,709.157227 221.205109,704.557434 229.832092,699.640076 
	C240.291779,693.678162 250.582336,687.416565 261.109985,681.580322 
	C262.634674,680.735046 265.773712,680.704468 266.972717,681.713867 
	C274.100342,687.714844 282.471954,689.123535 291.047760,687.756348 
	C302.749603,685.890869 314.101898,673.348267 314.997742,662.655945 
	C316.253082,647.672974 308.482880,636.439514 296.240326,631.307983 
	C293.338959,630.091980 292.958466,628.761597 292.979828,626.289001 
	C293.038757,619.457336 293.000031,612.624939 293.000000,605.792786 
	C292.999969,589.315125 293.000000,572.837463 293.000000,556.710266 
	C303.102661,553.606628 309.910522,547.845581 313.105255,537.921448 
	C316.481232,527.434204 314.569427,518.020569 307.952667,509.512085 
	C297.842224,496.510986 277.938568,495.985260 266.394714,504.907196 
	C264.240448,506.572174 262.329254,506.971802 259.520782,505.308533 
	C240.622574,494.116089 221.535416,483.242828 202.604752,472.104248 
	C201.728638,471.588745 201.211365,469.411621 201.460907,468.200897 
	C203.488617,458.363281 198.524902,446.805908 190.801865,440.960876 
	C183.610138,435.517914 176.017059,433.046387 166.635834,434.786163 
	C157.115021,436.551880 144.310226,446.655792 143.339462,458.176605 
M844.060669,604.043762 
	C844.488953,606.283630 844.834656,608.542969 845.358459,610.760315 
	C849.878052,629.893372 860.719482,644.053345 878.886597,651.909851 
	C897.723694,660.056213 915.978638,660.013367 933.503845,645.905823 
	C933.767700,648.003479 933.672241,649.886292 934.306763,651.478027 
	C934.843811,652.825195 936.204956,654.822021 937.236816,654.843750 
	C948.679810,655.083923 960.129700,654.994995 971.700806,654.994995 
	C971.700806,599.774780 971.700806,545.055237 971.700806,490.349609 
	C959.342041,490.349609 947.285339,490.349609 934.756348,490.349609 
	C934.756348,508.396606 934.756348,526.098145 934.756348,544.749084 
	C932.072632,542.414673 930.286926,540.490723 928.162292,539.075562 
	C917.175842,531.757446 905.136841,530.640930 892.405640,532.944397 
	C873.942932,536.284851 860.435242,546.495239 851.257080,562.496399 
	C844.039551,575.079285 843.319641,589.020447 844.060669,604.043762 
M609.493530,553.974365 
	C603.998413,549.157166 599.005371,543.544739 592.901550,539.691895 
	C580.971130,532.161194 567.513794,529.685242 553.792297,533.181641 
	C546.171753,535.123474 539.099243,539.216064 531.809204,542.326721 
	C531.809204,540.267395 531.809204,537.323303 531.809204,534.315063 
	C519.422180,534.315063 507.361420,534.315063 495.141663,534.315063 
	C495.084808,535.430420 495.007355,536.241638 495.007263,537.052856 
	C495.000885,589.718933 495.000793,642.385071 495.000580,695.051147 
	C495.000549,695.717773 494.733765,696.606750 495.061493,697.008484 
	C495.962158,698.112488 497.097015,699.843201 498.167816,699.864136 
	C508.951691,700.075195 519.741333,699.992676 531.207642,699.992676 
	C531.207642,681.092834 531.207642,662.635559 531.207642,643.138184 
	C533.091003,644.818604 534.050354,645.939575 535.242554,646.691345 
	C539.754517,649.536987 544.016296,653.334473 548.960876,654.837341 
	C565.344788,659.817322 581.001221,657.115601 595.439758,647.996948 
	C605.200378,641.832642 612.749023,633.753967 617.138977,622.771423 
	C622.172485,610.178772 624.126892,597.437012 622.122253,583.898376 
	C620.504578,572.972839 616.742615,563.186523 609.493530,553.974365 
M1112.645874,532.000000 
	C1096.913818,532.590881 1083.512573,539.013062 1072.213623,549.452454 
	C1058.768799,561.874512 1052.587524,577.653259 1052.980591,596.022095 
	C1053.425415,616.812439 1061.948730,633.351624 1079.181519,644.972229 
	C1100.442871,659.309387 1123.538696,660.294800 1147.318970,652.768127 
	C1155.420654,650.203796 1162.284058,645.216309 1166.623535,640.789612 
	C1160.553101,633.220825 1154.846313,626.105225 1149.387451,619.298828 
	C1136.959473,625.477295 1125.244995,627.557861 1113.052002,625.926880 
	C1103.303467,624.622742 1091.717407,617.255249 1090.678711,606.864258 
	C1118.670288,606.864258 1146.634033,606.864258 1175.000488,606.864258 
	C1175.000488,598.601074 1175.401611,590.600647 1174.913086,582.654968 
	C1174.028320,568.266602 1167.620361,556.062561 1156.990479,546.790649 
	C1144.777344,536.137634 1130.126709,530.890442 1112.645874,532.000000 
M822.005493,565.617188 
	C821.698914,564.864136 821.323669,564.131226 821.095886,563.355042 
	C815.507263,544.317810 802.344543,534.046753 783.077393,532.159180 
	C767.037903,530.587830 753.973389,537.128113 744.024292,549.819580 
	C743.365417,550.660034 742.538269,551.368591 740.771729,553.184753 
	C740.771729,545.786743 740.771729,540.028015 740.771729,534.373901 
	C728.289673,534.373901 716.233704,534.373901 704.238892,534.373901 
	C704.238892,574.680176 704.238892,614.612122 704.238892,654.712646 
	C716.533386,654.712646 728.587585,654.712646 741.000000,654.712646 
	C741.000000,652.794739 741.000000,651.160645 741.000000,649.526550 
	C741.000000,631.030762 741.652100,612.504150 740.780762,594.049500 
	C740.154175,580.777832 750.805603,569.201172 760.322388,565.401855 
	C767.787231,562.421692 781.400818,562.519714 784.739075,571.388062 
	C786.422546,575.860352 787.783936,580.755066 787.856689,585.480774 
	C788.184814,606.804199 788.000000,628.135498 788.000000,649.463989 
	C788.000000,651.223999 788.000000,652.984070 788.000000,654.616821 
	C800.729309,654.616821 812.785706,654.616821 824.998352,654.616821 
	C824.998352,631.745972 825.217773,609.254517 824.865356,586.771973 
	C824.759033,579.986084 823.065674,573.225098 822.005493,565.617188 
M421.946686,562.011353 
	C430.260895,558.922180 433.823883,560.672668 441.388733,571.695435 
	C451.423553,569.057007 461.537567,566.397705 471.645782,563.739990 
	C467.570831,553.127075 461.840790,543.962952 451.760651,538.372009 
	C437.136444,530.260742 421.704590,529.644592 406.262329,535.166443 
	C396.225861,538.755310 387.900452,544.923767 383.963745,555.646667 
	C378.381989,570.850159 384.475006,587.204895 398.133179,596.174988 
	C408.649109,603.081421 420.425079,606.566956 431.866241,611.090942 
	C435.527344,612.538635 438.949371,614.477173 439.053284,619.395752 
	C439.158905,624.395020 435.695282,626.414001 432.055786,627.860840 
	C423.183594,631.387878 412.629883,627.105774 407.768341,618.289307 
	C406.484039,615.960083 405.668793,614.454956 402.184021,615.755066 
	C394.318970,618.689453 386.145203,620.796387 378.057404,623.251953 
	C378.057404,624.428650 377.829559,625.328613 378.091278,626.051270 
	C382.661194,638.670593 391.099426,647.750916 403.460999,652.956726 
	C415.188324,657.895386 427.217072,658.999756 439.798279,656.115784 
	C452.249176,653.261719 462.987457,648.459290 470.402100,637.316101 
	C480.800781,621.688354 476.226166,597.789124 457.699463,589.986633 
	C446.942444,585.456360 436.105682,581.090210 425.159668,577.042786 
	C417.690735,574.281067 413.917145,567.422180 421.946686,562.011353 
M1032.000000,585.500000 
	C1032.000000,553.749390 1032.000000,521.998718 1032.000000,490.389740 
	C1019.590942,490.389740 1007.867310,490.389740 996.252441,490.389740 
	C996.252441,545.376953 996.252441,599.974060 996.252441,654.698669 
	C1008.228210,654.698669 1019.949463,654.698669 1032.000000,654.698669 
	C1032.000000,631.765930 1032.000000,609.132996 1032.000000,585.500000 
M643.000000,574.500000 
	C643.000000,601.250549 643.000000,628.001099 643.000000,654.611572 
	C655.740540,654.611572 667.796875,654.611572 679.748047,654.611572 
	C679.748047,614.291687 679.748047,574.360596 679.748047,534.299988 
	C667.440247,534.299988 655.386169,534.299988 643.000000,534.299988 
	C643.000000,547.564819 643.000000,560.532410 643.000000,574.500000 
M680.000000,507.491943 
	C680.000000,501.733215 680.000000,495.974457 680.000000,490.390961 
	C667.248657,490.390961 655.194946,490.390961 643.259399,490.390961 
	C643.259399,500.718903 643.259399,510.654114 643.259399,520.696655 
	C655.572266,520.696655 667.623657,520.696655 680.000000,520.696655 
	C680.000000,516.427063 680.000000,512.457153 680.000000,507.491943 
z"/>
<path fill="#6839FC" opacity="1.000000" stroke="none" 
	d="
M143.614899,457.832703 
	C144.310226,446.655792 157.115021,436.551880 166.635834,434.786163 
	C176.017059,433.046387 183.610138,435.517914 190.801865,440.960876 
	C198.524902,446.805908 203.488617,458.363281 201.460907,468.200897 
	C201.211365,469.411621 201.728638,471.588745 202.604752,472.104248 
	C221.535416,483.242828 240.622574,494.116089 259.520782,505.308533 
	C262.329254,506.971802 264.240448,506.572174 266.394714,504.907196 
	C277.938568,495.985260 297.842224,496.510986 307.952667,509.512085 
	C314.569427,518.020569 316.481232,527.434204 313.105255,537.921448 
	C309.910522,547.845581 303.102661,553.606628 293.000000,556.710266 
	C293.000000,572.837463 292.999969,589.315125 293.000000,605.792786 
	C293.000031,612.624939 293.038757,619.457336 292.979828,626.289001 
	C292.958466,628.761597 293.338959,630.091980 296.240326,631.307983 
	C308.482880,636.439514 316.253082,647.672974 314.997742,662.655945 
	C314.101898,673.348267 302.749603,685.890869 291.047760,687.756348 
	C282.471954,689.123535 274.100342,687.714844 266.972717,681.713867 
	C265.773712,680.704468 262.634674,680.735046 261.109985,681.580322 
	C250.582336,687.416565 240.291779,693.678162 229.832092,699.640076 
	C221.205109,704.557434 212.396042,709.157227 203.810425,714.143555 
	C202.512268,714.897522 200.943817,717.293457 201.270111,718.414978 
	C205.047836,731.400757 196.742615,746.607483 182.978577,751.979126 
	C171.012451,756.649048 157.458664,753.405823 148.781509,742.022766 
	C144.170288,735.973511 142.358414,728.480896 143.017197,720.682312 
	C143.297470,717.364746 142.602524,715.347534 139.158203,713.400391 
	C120.323143,702.752625 101.800415,691.553223 83.037292,680.775024 
	C81.944626,680.147400 79.409096,681.135986 78.013893,682.071594 
	C66.146706,690.029419 54.396675,690.508240 42.494030,682.157959 
	C33.695084,675.984985 29.465590,667.126587 30.253136,656.929688 
	C31.135374,645.506775 36.333214,636.020386 48.228203,631.897034 
	C49.762897,631.364990 51.154560,630.420349 53.000000,629.466614 
	C53.000000,616.068359 53.000011,602.434082 53.000000,588.799744 
	C52.999992,579.634705 52.926163,570.468689 53.040470,561.305054 
	C53.079784,558.153442 52.506859,556.844604 48.836044,555.623779 
	C38.992905,552.350037 33.626366,544.594116 30.957560,534.609009 
	C27.667349,522.299011 33.511162,510.677032 42.089787,504.701965 
	C52.327389,497.571411 64.746391,496.076691 76.051765,503.815552 
	C80.206924,506.659851 82.838631,506.719727 87.131317,504.131073 
	C104.268967,493.796295 121.710266,483.963806 139.077118,474.011597 
	C141.834274,472.431580 143.515945,470.671143 143.093994,467.114685 
	C142.746536,464.186249 143.226303,461.159698 143.614899,457.832703 
M243.930023,577.596252 
	C252.812866,593.101868 261.758759,608.571838 270.549438,624.129517 
	C274.408081,630.958557 274.436707,631.104797 281.998901,628.245483 
	C281.998901,605.882874 282.035889,583.433289 281.899017,560.984802 
	C281.891479,559.751709 280.723053,557.935547 279.608917,557.397705 
	C273.591675,554.493103 267.420959,551.906372 260.342865,548.786804 
	C253.058838,552.963867 244.406784,557.925415 235.620041,562.964233 
	C238.419861,567.954834 240.953964,572.471863 243.930023,577.596252 
M253.545349,513.031311 
	C234.564362,502.399597 215.583389,491.767883 196.865509,481.283569 
	C194.790390,483.122223 192.934921,484.766266 191.174133,486.326416 
	C204.439163,508.719055 217.569412,530.884155 230.822815,553.257202 
	C238.627594,548.970398 246.213593,544.908020 253.682571,540.640808 
	C256.072205,539.275574 257.378632,537.821594 256.424011,534.064087 
	C255.351822,529.843811 256.052338,524.830811 257.209351,520.489868 
	C258.219971,516.698181 257.976105,514.620544 253.545349,513.031311 
M113.591034,552.904114 
	C114.462433,552.073853 115.581848,551.389221 116.167671,550.391296 
	C123.746887,537.480713 131.309372,524.559509 138.751678,511.569672 
	C143.660461,503.001831 148.368759,494.319122 153.250336,485.537659 
	C150.116699,483.655579 147.981125,480.583160 143.854477,482.983124 
	C125.571411,493.616180 107.187477,504.075745 88.878464,514.664551 
	C88.079872,515.126404 86.985146,516.455750 87.164467,517.019836 
	C89.445763,524.195435 89.991982,531.323364 86.694855,538.336060 
	C95.797173,543.231140 104.388123,547.851196 113.591034,552.904114 
M90.934166,593.368896 
	C96.569244,583.376221 102.204323,573.383606 108.141769,562.854797 
	C99.796967,558.227417 91.735504,553.696838 83.580185,549.342102 
	C82.878418,548.967407 81.447624,549.556519 80.536896,550.039673 
	C74.627670,553.175110 68.768745,556.405273 62.242805,559.958557 
	C62.242805,581.945740 62.242805,605.355591 62.242805,628.731140 
	C63.945889,628.968262 65.466446,629.520508 66.850510,629.281677 
	C68.387291,629.016479 70.477943,628.435486 71.160774,627.294067 
	C77.751564,616.276428 84.096542,605.111694 90.934166,593.368896 
M245.063873,599.335510 
	C239.249832,588.851562 233.435791,578.367615 227.449265,567.572632 
	C218.514526,572.817627 209.957901,577.776978 201.504059,582.905701 
	C200.694458,583.396851 200.149887,584.933960 200.122284,586.002075 
	C199.984787,591.320679 199.887405,596.654419 200.182220,601.960327 
	C200.258255,603.328613 201.499100,605.120178 202.722931,605.858948 
	C212.035126,611.480408 221.458618,616.918823 230.881348,622.355469 
	C241.274139,628.351807 251.702957,634.285583 262.224884,640.308960 
	C263.684387,638.758118 264.904480,637.461609 266.110962,636.179626 
	C264.631378,633.528748 263.312134,631.116882 261.948456,628.730347 
	C256.466370,619.136230 250.970520,609.550049 245.063873,599.335510 
M214.664139,695.063965 
	C229.085800,686.957336 243.507462,678.850708 257.624054,670.915588 
	C256.777588,668.334106 256.087067,666.228210 255.486771,664.397400 
	C229.557358,664.397400 203.845612,664.397400 178.000641,664.397400 
	C178.000641,673.451172 178.047867,682.108459 177.970551,690.764648 
	C177.948654,693.216553 178.704224,694.208130 181.221313,695.297485 
	C186.577530,697.615479 191.496658,700.943481 197.933746,704.622864 
	C202.221756,702.188538 208.130386,698.834167 214.664139,695.063965 
M139.549942,606.965149 
	C141.016602,605.334534 143.561005,603.817810 143.747620,602.051941 
	C144.304153,596.785522 144.068909,591.415466 143.832611,586.099670 
	C143.775101,584.805603 142.845856,583.066895 141.774124,582.378967 
	C134.134033,577.474792 126.353127,572.790039 118.050514,567.687317 
	C104.580925,590.747742 91.262032,613.550171 77.880486,636.459900 
	C79.386391,637.818787 80.697144,639.001587 82.048798,640.221313 
	C87.131279,637.300598 91.921509,634.548889 96.710701,631.795471 
	C110.802925,623.693359 124.894714,615.590576 139.549942,606.965149 
M135.678284,698.938660 
	C138.526505,700.507751 141.337494,702.150208 144.236191,703.619751 
	C146.136993,704.583435 147.390839,705.570068 149.895676,703.095215 
	C153.454224,699.579285 158.605865,697.692566 163.016586,695.010620 
	C164.121552,694.338745 165.828751,693.306580 165.848572,692.408875 
	C166.056213,682.997803 165.976791,673.580322 165.976791,664.000000 
	C142.098801,664.000000 118.948494,663.999939 95.798180,664.000061 
	C88.499229,664.000061 88.499229,664.000366 87.731949,671.264343 
	C91.833885,673.503113 96.026009,675.669312 100.100494,678.037964 
	C111.775146,684.824951 123.402153,691.693848 135.678284,698.938660 
M177.000000,508.502991 
	C177.000031,525.628906 177.059174,542.755249 176.944550,559.880432 
	C176.924362,562.895325 177.612137,564.334717 180.764191,565.563538 
	C185.209473,567.296326 189.085159,570.445801 193.348557,572.719177 
	C194.503723,573.335083 196.500763,573.559875 197.563126,572.972534 
	C205.477356,568.597046 213.253601,563.971924 221.340668,559.269592 
	C219.239105,555.588257 217.298355,552.223755 215.390503,548.840759 
	C204.937454,530.304932 194.534988,511.740082 183.943649,493.283630 
	C183.278275,492.124176 180.966766,491.015808 179.771286,491.309448 
	C178.612717,491.593994 177.242111,493.662659 177.125687,495.045532 
	C176.778229,499.173065 177.000351,503.348602 177.000000,508.502991 
M236.608826,636.932068 
	C222.728806,628.826050 208.848770,620.719971 196.115509,613.283630 
	C189.525833,616.985046 183.944626,620.120056 178.275757,623.304260 
	C178.275757,633.109131 178.275757,643.366516 178.275757,654.000000 
	C180.176804,654.000000 181.806335,654.000000 183.435852,654.000000 
	C205.576523,654.000000 227.718246,653.888489 249.856995,654.095093 
	C254.223694,654.135803 256.737762,653.148682 256.723175,648.556030 
	C250.202148,644.689148 243.773102,640.876831 236.608826,636.932068 
M155.929169,502.409576 
	C144.889145,521.339478 133.849121,540.269409 122.853394,559.123413 
	C128.854828,562.758667 134.592346,566.138306 140.229980,569.677124 
	C145.346359,572.888733 150.058792,575.431763 155.354828,569.493042 
	C157.350891,567.254761 161.121506,566.684631 163.839401,564.968079 
	C165.178848,564.122070 166.855484,562.404846 166.866318,561.069458 
	C167.051392,538.281311 166.999100,515.491272 166.999100,492.526398 
	C165.428925,492.014648 163.978882,491.542053 162.729858,491.134979 
	C160.399338,494.818176 158.230804,498.245361 155.929169,502.409576 
M127.668877,625.062622 
	C127.032501,625.593262 126.457253,626.229431 125.750656,626.638855 
	C114.641220,633.075073 103.524200,639.498230 92.385704,645.884033 
	C89.719109,647.412903 86.674194,648.625854 88.444839,652.721008 
	C114.208382,652.721008 139.916595,652.721008 165.811554,652.721008 
	C165.811554,642.508667 165.811554,632.573730 165.811554,623.564636 
	C159.836670,620.100159 154.300888,616.890259 148.236191,613.373657 
	C142.145294,616.923035 135.275391,620.926331 127.668877,625.062622 
M188.055573,452.578766 
	C186.286926,450.703613 184.808945,448.372803 182.701645,447.028534 
	C170.529480,439.263824 153.543823,446.499023 152.526947,463.007416 
	C151.815475,474.557312 164.368210,484.992004 175.681931,482.085785 
	C189.921478,478.428009 195.078369,466.857727 188.055573,452.578766 
M176.524216,574.896301 
	C168.148605,572.356140 161.814987,575.951843 156.610001,581.973083 
	C151.870178,587.456238 151.797562,594.165466 153.975143,600.524902 
	C157.119431,609.707458 168.908218,614.743835 176.219467,612.365662 
	C187.631119,608.653625 193.394028,600.163879 190.870636,589.331238 
	C189.207993,582.193848 184.983200,576.822388 176.524216,574.896301 
M184.976212,709.468628 
	C176.408386,701.309326 160.751846,704.467163 155.614410,713.927917 
	C152.305923,720.020630 151.495102,726.324524 155.117142,732.565491 
	C159.591110,740.274536 166.500198,744.049500 175.286423,742.856079 
	C182.455307,741.882263 187.380341,737.104675 189.927689,730.443970 
	C192.836029,722.839111 190.651459,716.023865 184.976212,709.468628 
M303.633850,525.141541 
	C301.878174,516.634583 296.459625,511.294800 288.340210,509.302979 
	C281.237457,507.560608 275.245422,510.292511 270.441254,515.964661 
	C265.010498,522.376587 264.367889,533.213440 269.616730,540.051208 
	C275.445496,547.644470 285.099182,548.751892 292.663696,545.687256 
	C301.495209,542.109375 304.204407,534.820007 303.633850,525.141541 
M69.928833,512.404663 
	C66.098228,511.270721 62.217419,509.048492 58.447147,509.222412 
	C49.766468,509.622894 39.377522,518.473633 40.960346,531.797913 
	C41.985550,540.428223 52.231361,548.655457 61.417110,547.838562 
	C68.866760,547.176025 76.812920,539.863464 78.747665,531.443726 
	C80.137779,525.394104 77.806496,518.100037 69.928833,512.404663 
M296.877441,673.610352 
	C308.385529,663.568481 305.180267,649.147827 294.891998,642.442322 
	C288.264526,638.122742 276.827209,639.572144 271.292633,645.452026 
	C264.709869,652.445435 264.168945,661.757935 268.899139,668.691650 
	C274.862610,677.433105 284.948761,679.488342 296.877441,673.610352 
M56.928837,640.056702 
	C56.345161,640.346619 55.791008,640.768921 55.173409,640.906799 
	C45.437187,643.079407 39.188469,650.553223 40.100109,660.094116 
	C41.007847,669.594116 45.924290,675.197876 56.710651,676.877686 
	C65.544212,678.253418 74.549637,673.517395 77.325233,664.179138 
	C80.541992,653.356567 73.758759,639.565125 56.928837,640.056702 
z"/>
<path fill="#6839FC" opacity="1.000000" stroke="none" 
	d="
M844.034851,603.580811 
	C843.319641,589.020447 844.039551,575.079285 851.257080,562.496399 
	C860.435242,546.495239 873.942932,536.284851 892.405640,532.944397 
	C905.136841,530.640930 917.175842,531.757446 928.162292,539.075562 
	C930.286926,540.490723 932.072632,542.414673 934.756348,544.749084 
	C934.756348,526.098145 934.756348,508.396606 934.756348,490.349609 
	C947.285339,490.349609 959.342041,490.349609 971.700806,490.349609 
	C971.700806,545.055237 971.700806,599.774780 971.700806,654.994995 
	C960.129700,654.994995 948.679810,655.083923 937.236816,654.843750 
	C936.204956,654.822021 934.843811,652.825195 934.306763,651.478027 
	C933.672241,649.886292 933.767700,648.003479 933.503845,645.905823 
	C915.978638,660.013367 897.723694,660.056213 878.886597,651.909851 
	C860.719482,644.053345 849.878052,629.893372 845.358459,610.760315 
	C844.834656,608.542969 844.488953,606.283630 844.034851,603.580811 
M880.006775,587.962952 
	C880.004517,590.961182 879.973511,593.959656 880.005127,596.957520 
	C880.129822,608.768005 885.658142,617.084473 896.308350,622.061279 
	C908.557251,627.785400 923.466919,624.484131 930.655273,613.688843 
	C935.194885,606.871216 936.612122,598.947144 936.000793,590.730835 
	C934.538269,571.073547 917.939941,560.211060 899.491882,565.819031 
	C888.627747,569.121704 882.828979,576.600464 880.006775,587.962952 
z"/>
<path fill="#6839FC" opacity="1.000000" stroke="none" 
	d="
M609.747986,554.236389 
	C616.742615,563.186523 620.504578,572.972839 622.122253,583.898376 
	C624.126892,597.437012 622.172485,610.178772 617.138977,622.771423 
	C612.749023,633.753967 605.200378,641.832642 595.439758,647.996948 
	C581.001221,657.115601 565.344788,659.817322 548.960876,654.837341 
	C544.016296,653.334473 539.754517,649.536987 535.242554,646.691345 
	C534.050354,645.939575 533.091003,644.818604 531.207642,643.138184 
	C531.207642,662.635559 531.207642,681.092834 531.207642,699.992676 
	C519.741333,699.992676 508.951691,700.075195 498.167816,699.864136 
	C497.097015,699.843201 495.962158,698.112488 495.061493,697.008484 
	C494.733765,696.606750 495.000549,695.717773 495.000580,695.051147 
	C495.000793,642.385071 495.000885,589.718933 495.007263,537.052856 
	C495.007355,536.241638 495.084808,535.430420 495.141663,534.315063 
	C507.361420,534.315063 519.422180,534.315063 531.809204,534.315063 
	C531.809204,537.323303 531.809204,540.267395 531.809204,542.326721 
	C539.099243,539.216064 546.171753,535.123474 553.792297,533.181641 
	C567.513794,529.685242 580.971130,532.161194 592.901550,539.691895 
	C599.005371,543.544739 603.998413,549.157166 609.747986,554.236389 
M586.957092,600.914673 
	C586.971375,598.082703 587.118530,595.244080 586.976135,592.420044 
	C586.469971,582.387939 582.783264,573.987061 573.966553,568.511169 
	C562.651184,561.483337 545.887146,563.353088 538.321838,572.118408 
	C531.855652,579.610352 530.502869,588.232422 530.885193,597.815308 
	C531.683044,617.819702 549.688293,629.239136 567.991699,623.137207 
	C578.650757,619.583862 583.811523,611.805237 586.957092,600.914673 
z"/>
<path fill="#6839FC" opacity="1.000000" stroke="none" 
	d="
M1113.126221,532.000000 
	C1130.126709,530.890442 1144.777344,536.137634 1156.990479,546.790649 
	C1167.620361,556.062561 1174.028320,568.266602 1174.913086,582.654968 
	C1175.401611,590.600647 1175.000488,598.601074 1175.000488,606.864258 
	C1146.634033,606.864258 1118.670288,606.864258 1090.678711,606.864258 
	C1091.717407,617.255249 1103.303467,624.622742 1113.052002,625.926880 
	C1125.244995,627.557861 1136.959473,625.477295 1149.387451,619.298828 
	C1154.846313,626.105225 1160.553101,633.220825 1166.623535,640.789612 
	C1162.284058,645.216309 1155.420654,650.203796 1147.318970,652.768127 
	C1123.538696,660.294800 1100.442871,659.309387 1079.181519,644.972229 
	C1061.948730,633.351624 1053.425415,616.812439 1052.980591,596.022095 
	C1052.587524,577.653259 1058.768799,561.874512 1072.213623,549.452454 
	C1083.512573,539.013062 1096.913818,532.590881 1113.126221,532.000000 
M1095.057983,573.686707 
	C1093.805298,575.978333 1092.552734,578.270020 1091.167969,580.803345 
	C1108.507324,580.803345 1125.081421,580.803345 1142.811035,580.803345 
	C1140.289551,576.976013 1138.793091,573.087708 1136.000732,570.741272 
	C1122.707886,559.570801 1107.487671,560.854797 1095.057983,573.686707 
z"/>
<path fill="#6839FC" opacity="1.000000" stroke="none" 
	d="
M822.052368,566.034912 
	C823.065674,573.225098 824.759033,579.986084 824.865356,586.771973 
	C825.217773,609.254517 824.998352,631.745972 824.998352,654.616821 
	C812.785706,654.616821 800.729309,654.616821 788.000000,654.616821 
	C788.000000,652.984070 788.000000,651.223999 788.000000,649.463989 
	C788.000000,628.135498 788.184814,606.804199 787.856689,585.480774 
	C787.783936,580.755066 786.422546,575.860352 784.739075,571.388062 
	C781.400818,562.519714 767.787231,562.421692 760.322388,565.401855 
	C750.805603,569.201172 740.154175,580.777832 740.780762,594.049500 
	C741.652100,612.504150 741.000000,631.030762 741.000000,649.526550 
	C741.000000,651.160645 741.000000,652.794739 741.000000,654.712646 
	C728.587585,654.712646 716.533386,654.712646 704.238892,654.712646 
	C704.238892,614.612122 704.238892,574.680176 704.238892,534.373901 
	C716.233704,534.373901 728.289673,534.373901 740.771729,534.373901 
	C740.771729,540.028015 740.771729,545.786743 740.771729,553.184753 
	C742.538269,551.368591 743.365417,550.660034 744.024292,549.819580 
	C753.973389,537.128113 767.037903,530.587830 783.077393,532.159180 
	C802.344543,534.046753 815.507263,544.317810 821.095886,563.355042 
	C821.323669,564.131226 821.698914,564.864136 822.052368,566.034912 
z"/>
<path fill="#6839FC" opacity="1.000000" stroke="none" 
	d="
M421.576843,562.161133 
	C413.917145,567.422180 417.690735,574.281067 425.159668,577.042786 
	C436.105682,581.090210 446.942444,585.456360 457.699463,589.986633 
	C476.226166,597.789124 480.800781,621.688354 470.402100,637.316101 
	C462.987457,648.459290 452.249176,653.261719 439.798279,656.115784 
	C427.217072,658.999756 415.188324,657.895386 403.460999,652.956726 
	C391.099426,647.750916 382.661194,638.670593 378.091278,626.051270 
	C377.829559,625.328613 378.057404,624.428650 378.057404,623.251953 
	C386.145203,620.796387 394.318970,618.689453 402.184021,615.755066 
	C405.668793,614.454956 406.484039,615.960083 407.768341,618.289307 
	C412.629883,627.105774 423.183594,631.387878 432.055786,627.860840 
	C435.695282,626.414001 439.158905,624.395020 439.053284,619.395752 
	C438.949371,614.477173 435.527344,612.538635 431.866241,611.090942 
	C420.425079,606.566956 408.649109,603.081421 398.133179,596.174988 
	C384.475006,587.204895 378.381989,570.850159 383.963745,555.646667 
	C387.900452,544.923767 396.225861,538.755310 406.262329,535.166443 
	C421.704590,529.644592 437.136444,530.260742 451.760651,538.372009 
	C461.840790,543.962952 467.570831,553.127075 471.645782,563.739990 
	C461.537567,566.397705 451.423553,569.057007 441.388733,571.695435 
	C433.823883,560.672668 430.260895,558.922180 421.576843,562.161133 
z"/>
<path fill="#6839FC" opacity="1.000000" stroke="none" 
	d="
M1032.000000,586.000000 
	C1032.000000,609.132996 1032.000000,631.765930 1032.000000,654.698669 
	C1019.949463,654.698669 1008.228210,654.698669 996.252441,654.698669 
	C996.252441,599.974060 996.252441,545.376953 996.252441,490.389740 
	C1007.867310,490.389740 1019.590942,490.389740 1032.000000,490.389740 
	C1032.000000,521.998718 1032.000000,553.749390 1032.000000,586.000000 
z"/>
<path fill="#6839FC" opacity="1.000000" stroke="none" 
	d="
M643.000000,574.000000 
	C643.000000,560.532410 643.000000,547.564819 643.000000,534.299988 
	C655.386169,534.299988 667.440247,534.299988 679.748047,534.299988 
	C679.748047,574.360596 679.748047,614.291687 679.748047,654.611572 
	C667.796875,654.611572 655.740540,654.611572 643.000000,654.611572 
	C643.000000,628.001099 643.000000,601.250549 643.000000,574.000000 
z"/>
<path fill="#6839FC" opacity="1.000000" stroke="none" 
	d="
M680.000000,507.989594 
	C680.000000,512.457153 680.000000,516.427063 680.000000,520.696655 
	C667.623657,520.696655 655.572266,520.696655 643.259399,520.696655 
	C643.259399,510.654114 643.259399,500.718903 643.259399,490.390961 
	C655.194946,490.390961 667.248657,490.390961 680.000000,490.390961 
	C680.000000,495.974457 680.000000,501.733215 680.000000,507.989594 
z"/>
<path fill="#000000" opacity="1.000000" stroke="none" 
	d="
M243.709045,577.292542 
	C240.953964,572.471863 238.419861,567.954834 235.620041,562.964233 
	C244.406784,557.925415 253.058838,552.963867 260.342865,548.786804 
	C267.420959,551.906372 273.591675,554.493103 279.608917,557.397705 
	C280.723053,557.935547 281.891479,559.751709 281.899017,560.984802 
	C282.035889,583.433289 281.998901,605.882874 281.998901,628.245483 
	C274.436707,631.104797 274.408081,630.958557 270.549438,624.129517 
	C261.758759,608.571838 252.812866,593.101868 243.709045,577.292542 
z"/>
<path fill="#000000" opacity="1.000000" stroke="none" 
	d="
M253.816895,513.302246 
	C257.976105,514.620544 258.219971,516.698181 257.209351,520.489868 
	C256.052338,524.830811 255.351822,529.843811 256.424011,534.064087 
	C257.378632,537.821594 256.072205,539.275574 253.682571,540.640808 
	C246.213593,544.908020 238.627594,548.970398 230.822815,553.257202 
	C217.569412,530.884155 204.439163,508.719055 191.174133,486.326416 
	C192.934921,484.766266 194.790390,483.122223 196.865509,481.283569 
	C215.583389,491.767883 234.564362,502.399597 253.816895,513.302246 
z"/>
<path fill="#000000" opacity="1.000000" stroke="none" 
	d="
M113.285049,552.687744 
	C104.388123,547.851196 95.797173,543.231140 86.694855,538.336060 
	C89.991982,531.323364 89.445763,524.195435 87.164467,517.019836 
	C86.985146,516.455750 88.079872,515.126404 88.878464,514.664551 
	C107.187477,504.075745 125.571411,493.616180 143.854477,482.983124 
	C147.981125,480.583160 150.116699,483.655579 153.250336,485.537659 
	C148.368759,494.319122 143.660461,503.001831 138.751678,511.569672 
	C131.309372,524.559509 123.746887,537.480713 116.167671,550.391296 
	C115.581848,551.389221 114.462433,552.073853 113.285049,552.687744 
z"/>
<path fill="#000000" opacity="1.000000" stroke="none" 
	d="
M90.722977,593.678955 
	C84.096542,605.111694 77.751564,616.276428 71.160774,627.294067 
	C70.477943,628.435486 68.387291,629.016479 66.850510,629.281677 
	C65.466446,629.520508 63.945889,628.968262 62.242805,628.731140 
	C62.242805,605.355591 62.242805,581.945740 62.242805,559.958557 
	C68.768745,556.405273 74.627670,553.175110 80.536896,550.039673 
	C81.447624,549.556519 82.878418,548.967407 83.580185,549.342102 
	C91.735504,553.696838 99.796967,558.227417 108.141769,562.854797 
	C102.204323,573.383606 96.569244,583.376221 90.722977,593.678955 
z"/>
<path fill="#000000" opacity="1.000000" stroke="none" 
	d="
M245.271820,599.648193 
	C250.970520,609.550049 256.466370,619.136230 261.948456,628.730347 
	C263.312134,631.116882 264.631378,633.528748 266.110962,636.179626 
	C264.904480,637.461609 263.684387,638.758118 262.224884,640.308960 
	C251.702957,634.285583 241.274139,628.351807 230.881348,622.355469 
	C221.458618,616.918823 212.035126,611.480408 202.722931,605.858948 
	C201.499100,605.120178 200.258255,603.328613 200.182220,601.960327 
	C199.887405,596.654419 199.984787,591.320679 200.122284,586.002075 
	C200.149887,584.933960 200.694458,583.396851 201.504059,582.905701 
	C209.957901,577.776978 218.514526,572.817627 227.449265,567.572632 
	C233.435791,578.367615 239.249832,588.851562 245.271820,599.648193 
z"/>
<path fill="#000000" opacity="1.000000" stroke="none" 
	d="
M214.351562,695.271912 
	C208.130386,698.834167 202.221756,702.188538 197.933746,704.622864 
	C191.496658,700.943481 186.577530,697.615479 181.221313,695.297485 
	C178.704224,694.208130 177.948654,693.216553 177.970551,690.764648 
	C178.047867,682.108459 178.000641,673.451172 178.000641,664.397400 
	C203.845612,664.397400 229.557358,664.397400 255.486771,664.397400 
	C256.087067,666.228210 256.777588,668.334106 257.624054,670.915588 
	C243.507462,678.850708 229.085800,686.957336 214.351562,695.271912 
z"/>
<path fill="#000000" opacity="1.000000" stroke="none" 
	d="
M139.268311,607.226624 
	C124.894714,615.590576 110.802925,623.693359 96.710701,631.795471 
	C91.921509,634.548889 87.131279,637.300598 82.048798,640.221313 
	C80.697144,639.001587 79.386391,637.818787 77.880486,636.459900 
	C91.262032,613.550171 104.580925,590.747742 118.050514,567.687317 
	C126.353127,572.790039 134.134033,577.474792 141.774124,582.378967 
	C142.845856,583.066895 143.775101,584.805603 143.832611,586.099670 
	C144.068909,591.415466 144.304153,596.785522 143.747620,602.051941 
	C143.561005,603.817810 141.016602,605.334534 139.268311,607.226624 
z"/>
<path fill="#000000" opacity="1.000000" stroke="none" 
	d="
M135.363083,698.734619 
	C123.402153,691.693848 111.775146,684.824951 100.100494,678.037964 
	C96.026009,675.669312 91.833885,673.503113 87.731949,671.264343 
	C88.499229,664.000366 88.499229,664.000061 95.798180,664.000061 
	C118.948494,663.999939 142.098801,664.000000 165.976791,664.000000 
	C165.976791,673.580322 166.056213,682.997803 165.848572,692.408875 
	C165.828751,693.306580 164.121552,694.338745 163.016586,695.010620 
	C158.605865,697.692566 153.454224,699.579285 149.895676,703.095215 
	C147.390839,705.570068 146.136993,704.583435 144.236191,703.619751 
	C141.337494,702.150208 138.526505,700.507751 135.363083,698.734619 
z"/>
<path fill="#000000" opacity="1.000000" stroke="none" 
	d="
M177.000000,508.004181 
	C177.000351,503.348602 176.778229,499.173065 177.125687,495.045532 
	C177.242111,493.662659 178.612717,491.593994 179.771286,491.309448 
	C180.966766,491.015808 183.278275,492.124176 183.943649,493.283630 
	C194.534988,511.740082 204.937454,530.304932 215.390503,548.840759 
	C217.298355,552.223755 219.239105,555.588257 221.340668,559.269592 
	C213.253601,563.971924 205.477356,568.597046 197.563126,572.972534 
	C196.500763,573.559875 194.503723,573.335083 193.348557,572.719177 
	C189.085159,570.445801 185.209473,567.296326 180.764191,565.563538 
	C177.612137,564.334717 176.924362,562.895325 176.944550,559.880432 
	C177.059174,542.755249 177.000031,525.628906 177.000000,508.004181 
z"/>
<path fill="#000000" opacity="1.000000" stroke="none" 
	d="
M236.976440,636.998291 
	C243.773102,640.876831 250.202148,644.689148 256.723175,648.556030 
	C256.737762,653.148682 254.223694,654.135803 249.856995,654.095093 
	C227.718246,653.888489 205.576523,654.000000 183.435852,654.000000 
	C181.806335,654.000000 180.176804,654.000000 178.275757,654.000000 
	C178.275757,643.366516 178.275757,633.109131 178.275757,623.304260 
	C183.944626,620.120056 189.525833,616.985046 196.115509,613.283630 
	C208.848770,620.719971 222.728806,628.826050 236.976440,636.998291 
z"/>
<path fill="#000000" opacity="1.000000" stroke="none" 
	d="
M155.995728,502.041077 
	C158.230804,498.245361 160.399338,494.818176 162.729858,491.134979 
	C163.978882,491.542053 165.428925,492.014648 166.999100,492.526398 
	C166.999100,515.491272 167.051392,538.281311 166.866318,561.069458 
	C166.855484,562.404846 165.178848,564.122070 163.839401,564.968079 
	C161.121506,566.684631 157.350891,567.254761 155.354828,569.493042 
	C150.058792,575.431763 145.346359,572.888733 140.229980,569.677124 
	C134.592346,566.138306 128.854828,562.758667 122.853394,559.123413 
	C133.849121,540.269409 144.889145,521.339478 155.995728,502.041077 
z"/>
<path fill="#000000" opacity="1.000000" stroke="none" 
	d="
M128.037186,624.996094 
	C135.275391,620.926331 142.145294,616.923035 148.236191,613.373657 
	C154.300888,616.890259 159.836670,620.100159 165.811554,623.564636 
	C165.811554,632.573730 165.811554,642.508667 165.811554,652.721008 
	C139.916595,652.721008 114.208382,652.721008 88.444839,652.721008 
	C86.674194,648.625854 89.719109,647.412903 92.385704,645.884033 
	C103.524200,639.498230 114.641220,633.075073 125.750656,626.638855 
	C126.457253,626.229431 127.032501,625.593262 128.037186,624.996094 
z"/>
<path fill="#000000" opacity="1.000000" stroke="none" 
	d="
M188.326096,452.844238 
	C195.078369,466.857727 189.921478,478.428009 175.681931,482.085785 
	C164.368210,484.992004 151.815475,474.557312 152.526947,463.007416 
	C153.543823,446.499023 170.529480,439.263824 182.701645,447.028534 
	C184.808945,448.372803 186.286926,450.703613 188.326096,452.844238 
z"/>
<path fill="#000000" opacity="1.000000" stroke="none" 
	d="
M176.939789,574.940430 
	C184.983200,576.822388 189.207993,582.193848 190.870636,589.331238 
	C193.394028,600.163879 187.631119,608.653625 176.219467,612.365662 
	C168.908218,614.743835 157.119431,609.707458 153.975143,600.524902 
	C151.797562,594.165466 151.870178,587.456238 156.610001,581.973083 
	C161.814987,575.951843 168.148605,572.356140 176.939789,574.940430 
z"/>
<path fill="#000000" opacity="1.000000" stroke="none" 
	d="
M185.239624,709.735657 
	C190.651459,716.023865 192.836029,722.839111 189.927689,730.443970 
	C187.380341,737.104675 182.455307,741.882263 175.286423,742.856079 
	C166.500198,744.049500 159.591110,740.274536 155.117142,732.565491 
	C151.495102,726.324524 152.305923,720.020630 155.614410,713.927917 
	C160.751846,704.467163 176.408386,701.309326 185.239624,709.735657 
z"/>
<path fill="#000000" opacity="1.000000" stroke="none" 
	d="
M303.789062,525.539917 
	C304.204407,534.820007 301.495209,542.109375 292.663696,545.687256 
	C285.099182,548.751892 275.445496,547.644470 269.616730,540.051208 
	C264.367889,533.213440 265.010498,522.376587 270.441254,515.964661 
	C275.245422,510.292511 281.237457,507.560608 288.340210,509.302979 
	C296.459625,511.294800 301.878174,516.634583 303.789062,525.539917 
z"/>
<path fill="#000000" opacity="1.000000" stroke="none" 
	d="
M70.188698,512.682007 
	C77.806496,518.100037 80.137779,525.394104 78.747665,531.443726 
	C76.812920,539.863464 68.866760,547.176025 61.417110,547.838562 
	C52.231361,548.655457 41.985550,540.428223 40.960346,531.797913 
	C39.377522,518.473633 49.766468,509.622894 58.447147,509.222412 
	C62.217419,509.048492 66.098228,511.270721 70.188698,512.682007 
z"/>
<path fill="#000000" opacity="1.000000" stroke="none" 
	d="
M296.540222,673.784180 
	C284.948761,679.488342 274.862610,677.433105 268.899139,668.691650 
	C264.168945,661.757935 264.709869,652.445435 271.292633,645.452026 
	C276.827209,639.572144 288.264526,638.122742 294.891998,642.442322 
	C305.180267,649.147827 308.385529,663.568481 296.540222,673.784180 
z"/>
<path fill="#000000" opacity="1.000000" stroke="none" 
	d="
M57.356995,640.032715 
	C73.758759,639.565125 80.541992,653.356567 77.325233,664.179138 
	C74.549637,673.517395 65.544212,678.253418 56.710651,676.877686 
	C45.924290,675.197876 41.007847,669.594116 40.100109,660.094116 
	C39.188469,650.553223 45.437187,643.079407 55.173409,640.906799 
	C55.791008,640.768921 56.345161,640.346619 57.356995,640.032715 
z"/>
<path fill="#000000" opacity="1.000000" stroke="none" 
	d="
M880.026184,587.514648 
	C882.828979,576.600464 888.627747,569.121704 899.491882,565.819031 
	C917.939941,560.211060 934.538269,571.073547 936.000793,590.730835 
	C936.612122,598.947144 935.194885,606.871216 930.655273,613.688843 
	C923.466919,624.484131 908.557251,627.785400 896.308350,622.061279 
	C885.658142,617.084473 880.129822,608.768005 880.005127,596.957520 
	C879.973511,593.959656 880.004517,590.961182 880.026184,587.514648 
z"/>
<path fill="#000000" opacity="1.000000" stroke="none" 
	d="
M586.835205,601.337036 
	C583.811523,611.805237 578.650757,619.583862 567.991699,623.137207 
	C549.688293,629.239136 531.683044,617.819702 530.885193,597.815308 
	C530.502869,588.232422 531.855652,579.610352 538.321838,572.118408 
	C545.887146,563.353088 562.651184,561.483337 573.966553,568.511169 
	C582.783264,573.987061 586.469971,582.387939 586.976135,592.420044 
	C587.118530,595.244080 586.971375,598.082703 586.835205,601.337036 
z"/>
<path fill="#000000" opacity="1.000000" stroke="none" 
	d="
M1095.251465,573.377197 
	C1107.487671,560.854797 1122.707886,559.570801 1136.000732,570.741272 
	C1138.793091,573.087708 1140.289551,576.976013 1142.811035,580.803345 
	C1125.081421,580.803345 1108.507324,580.803345 1091.167969,580.803345 
	C1092.552734,578.270020 1093.805298,575.978333 1095.251465,573.377197 
z"/>
</svg>